<?xml version="1.0" encoding="UTF-8" standalone="no"?>
<svg
   height="100%"
   id="svg2"
   inkscape:version="1.4.2 (f4327f4, 2025-05-13)"
   preserveAspectRatio="xMidYMax"
   sodipodi:docname="mancomunidades.svg"
   version="1.1"
   viewBox="-798041.83 4440647.6 3294.2609 2345.4868"
   width="100%"
   xmlns:inkscape="http://www.inkscape.org/namespaces/inkscape"
   xmlns:sodipodi="http://sodipodi.sourceforge.net/DTD/sodipodi-0.dtd"
   xmlns="http://www.w3.org/2000/svg"
   xmlns:svg="http://www.w3.org/2000/svg"
   xmlns:rdf="http://www.w3.org/1999/02/22-rdf-syntax-ns#"
   xmlns:cc="http://creativecommons.org/ns#"
   xmlns:dc="http://purl.org/dc/elements/1.1/">
  <metadata
     id="metadata307">
    <rdf:RDF>
      <cc:Work
         rdf:about="">
        <dc:format>image/svg+xml</dc:format>
        <dc:type
           rdf:resource="http://purl.org/dc/dcmitype/StillImage" />
        <dc:title> SVG from Global Mapper </dc:title>
      </cc:Work>
    </rdf:RDF>
  </metadata>
  <defs
     id="defs305">
    <inkscape:perspective
       id="perspective309"
       inkscape:persp3d-origin="637147.76 : 137264.06 : 1"
       inkscape:vp_x="0 : 205896.08 : 1"
       inkscape:vp_y="0 : 1000 : 0"
       inkscape:vp_z="1274295.5 : 205896.08 : 1"
       sodipodi:type="inkscape:persp3d" />
    <inkscape:perspective
       id="perspective4578"
       inkscape:persp3d-origin="0.5 : 0.33333333 : 1"
       inkscape:vp_x="0 : 0.5 : 1"
       inkscape:vp_y="0 : 1000 : 0"
       inkscape:vp_z="1 : 0.5 : 1"
       sodipodi:type="inkscape:persp3d" />
    <inkscape:perspective
       id="perspective4633"
       inkscape:persp3d-origin="0.5 : 0.33333333 : 1"
       inkscape:vp_x="0 : 0.5 : 1"
       inkscape:vp_y="0 : 1000 : 0"
       inkscape:vp_z="1 : 0.5 : 1"
       sodipodi:type="inkscape:persp3d" />
    <inkscape:perspective
       id="perspective3704"
       inkscape:persp3d-origin="0.5 : 0.33333333 : 1"
       inkscape:vp_x="0 : 0.5 : 1"
       inkscape:vp_y="0 : 1000 : 0"
       inkscape:vp_z="1 : 0.5 : 1"
       sodipodi:type="inkscape:persp3d" />
    <inkscape:perspective
       id="perspective3859"
       inkscape:persp3d-origin="0.5 : 0.33333333 : 1"
       inkscape:vp_x="0 : 0.5 : 1"
       inkscape:vp_y="0 : 1000 : 0"
       inkscape:vp_z="1 : 0.5 : 1"
       sodipodi:type="inkscape:persp3d" />
    <inkscape:perspective
       id="perspective3890"
       inkscape:persp3d-origin="0.5 : 0.33333333 : 1"
       inkscape:vp_x="0 : 0.5 : 1"
       inkscape:vp_y="0 : 1000 : 0"
       inkscape:vp_z="1 : 0.5 : 1"
       sodipodi:type="inkscape:persp3d" />
    <inkscape:perspective
       id="perspective3912"
       inkscape:persp3d-origin="0.5 : 0.33333333 : 1"
       inkscape:vp_x="0 : 0.5 : 1"
       inkscape:vp_y="0 : 1000 : 0"
       inkscape:vp_z="1 : 0.5 : 1"
       sodipodi:type="inkscape:persp3d" />
    <inkscape:perspective
       id="perspective3912-8"
       inkscape:persp3d-origin="0.5 : 0.33333333 : 1"
       inkscape:vp_x="0 : 0.5 : 1"
       inkscape:vp_y="0 : 1000 : 0"
       inkscape:vp_z="1 : 0.5 : 1"
       sodipodi:type="inkscape:persp3d" />
    <inkscape:perspective
       id="perspective3945"
       inkscape:persp3d-origin="0.5 : 0.33333333 : 1"
       inkscape:vp_x="0 : 0.5 : 1"
       inkscape:vp_y="0 : 1000 : 0"
       inkscape:vp_z="1 : 0.5 : 1"
       sodipodi:type="inkscape:persp3d" />
    <inkscape:perspective
       id="perspective3976"
       inkscape:persp3d-origin="0.5 : 0.33333333 : 1"
       inkscape:vp_x="0 : 0.5 : 1"
       inkscape:vp_y="0 : 1000 : 0"
       inkscape:vp_z="1 : 0.5 : 1"
       sodipodi:type="inkscape:persp3d" />
    <inkscape:perspective
       id="perspective3976-5"
       inkscape:persp3d-origin="0.5 : 0.33333333 : 1"
       inkscape:vp_x="0 : 0.5 : 1"
       inkscape:vp_y="0 : 1000 : 0"
       inkscape:vp_z="1 : 0.5 : 1"
       sodipodi:type="inkscape:persp3d" />
    <inkscape:perspective
       id="perspective4056"
       inkscape:persp3d-origin="0.5 : 0.33333333 : 1"
       inkscape:vp_x="0 : 0.5 : 1"
       inkscape:vp_y="0 : 1000 : 0"
       inkscape:vp_z="1 : 0.5 : 1"
       sodipodi:type="inkscape:persp3d" />
    <inkscape:perspective
       id="perspective4056-1"
       inkscape:persp3d-origin="0.5 : 0.33333333 : 1"
       inkscape:vp_x="0 : 0.5 : 1"
       inkscape:vp_y="0 : 1000 : 0"
       inkscape:vp_z="1 : 0.5 : 1"
       sodipodi:type="inkscape:persp3d" />
    <inkscape:perspective
       id="perspective4097"
       inkscape:persp3d-origin="0.5 : 0.33333333 : 1"
       inkscape:vp_x="0 : 0.5 : 1"
       inkscape:vp_y="0 : 1000 : 0"
       inkscape:vp_z="1 : 0.5 : 1"
       sodipodi:type="inkscape:persp3d" />
    <inkscape:perspective
       id="perspective4122"
       inkscape:persp3d-origin="0.5 : 0.33333333 : 1"
       inkscape:vp_x="0 : 0.5 : 1"
       inkscape:vp_y="0 : 1000 : 0"
       inkscape:vp_z="1 : 0.5 : 1"
       sodipodi:type="inkscape:persp3d" />
    <inkscape:perspective
       id="perspective4145"
       inkscape:persp3d-origin="0.5 : 0.33333333 : 1"
       inkscape:vp_x="0 : 0.5 : 1"
       inkscape:vp_y="0 : 1000 : 0"
       inkscape:vp_z="1 : 0.5 : 1"
       sodipodi:type="inkscape:persp3d" />
    <inkscape:perspective
       id="perspective4168"
       inkscape:persp3d-origin="0.5 : 0.33333333 : 1"
       inkscape:vp_x="0 : 0.5 : 1"
       inkscape:vp_y="0 : 1000 : 0"
       inkscape:vp_z="1 : 0.5 : 1"
       sodipodi:type="inkscape:persp3d" />
    <inkscape:perspective
       id="perspective4191"
       inkscape:persp3d-origin="0.5 : 0.33333333 : 1"
       inkscape:vp_x="0 : 0.5 : 1"
       inkscape:vp_y="0 : 1000 : 0"
       inkscape:vp_z="1 : 0.5 : 1"
       sodipodi:type="inkscape:persp3d" />
    <inkscape:perspective
       id="perspective4207"
       inkscape:persp3d-origin="0.5 : 0.33333333 : 1"
       inkscape:vp_x="0 : 0.5 : 1"
       inkscape:vp_y="0 : 1000 : 0"
       inkscape:vp_z="1 : 0.5 : 1"
       sodipodi:type="inkscape:persp3d" />
    <inkscape:perspective
       id="perspective4230"
       inkscape:persp3d-origin="0.5 : 0.33333333 : 1"
       inkscape:vp_x="0 : 0.5 : 1"
       inkscape:vp_y="0 : 1000 : 0"
       inkscape:vp_z="1 : 0.5 : 1"
       sodipodi:type="inkscape:persp3d" />
    <inkscape:perspective
       id="perspective4266"
       inkscape:persp3d-origin="0.5 : 0.33333333 : 1"
       inkscape:vp_x="0 : 0.5 : 1"
       inkscape:vp_y="0 : 1000 : 0"
       inkscape:vp_z="1 : 0.5 : 1"
       sodipodi:type="inkscape:persp3d" />
    <inkscape:perspective
       id="perspective4289"
       inkscape:persp3d-origin="0.5 : 0.33333333 : 1"
       inkscape:vp_x="0 : 0.5 : 1"
       inkscape:vp_y="0 : 1000 : 0"
       inkscape:vp_z="1 : 0.5 : 1"
       sodipodi:type="inkscape:persp3d" />
    <inkscape:perspective
       id="perspective4311"
       inkscape:persp3d-origin="0.5 : 0.33333333 : 1"
       inkscape:vp_x="0 : 0.5 : 1"
       inkscape:vp_y="0 : 1000 : 0"
       inkscape:vp_z="1 : 0.5 : 1"
       sodipodi:type="inkscape:persp3d" />
    <inkscape:perspective
       id="perspective4335"
       inkscape:persp3d-origin="0.5 : 0.33333333 : 1"
       inkscape:vp_x="0 : 0.5 : 1"
       inkscape:vp_y="0 : 1000 : 0"
       inkscape:vp_z="1 : 0.5 : 1"
       sodipodi:type="inkscape:persp3d" />
    <inkscape:perspective
       id="perspective4358"
       inkscape:persp3d-origin="0.5 : 0.33333333 : 1"
       inkscape:vp_x="0 : 0.5 : 1"
       inkscape:vp_y="0 : 1000 : 0"
       inkscape:vp_z="1 : 0.5 : 1"
       sodipodi:type="inkscape:persp3d" />
    <inkscape:perspective
       id="perspective4381"
       inkscape:persp3d-origin="0.5 : 0.33333333 : 1"
       inkscape:vp_x="0 : 0.5 : 1"
       inkscape:vp_y="0 : 1000 : 0"
       inkscape:vp_z="1 : 0.5 : 1"
       sodipodi:type="inkscape:persp3d" />
    <inkscape:perspective
       id="perspective4381-4"
       inkscape:persp3d-origin="0.5 : 0.33333333 : 1"
       inkscape:vp_x="0 : 0.5 : 1"
       inkscape:vp_y="0 : 1000 : 0"
       inkscape:vp_z="1 : 0.5 : 1"
       sodipodi:type="inkscape:persp3d" />
    <inkscape:perspective
       id="perspective4427"
       inkscape:persp3d-origin="0.5 : 0.33333333 : 1"
       inkscape:vp_x="0 : 0.5 : 1"
       inkscape:vp_y="0 : 1000 : 0"
       inkscape:vp_z="1 : 0.5 : 1"
       sodipodi:type="inkscape:persp3d" />
    <inkscape:perspective
       id="perspective4450"
       inkscape:persp3d-origin="0.5 : 0.33333333 : 1"
       inkscape:vp_x="0 : 0.5 : 1"
       inkscape:vp_y="0 : 1000 : 0"
       inkscape:vp_z="1 : 0.5 : 1"
       sodipodi:type="inkscape:persp3d" />
    <inkscape:perspective
       id="perspective2983"
       inkscape:persp3d-origin="0.5 : 0.33333333 : 1"
       inkscape:vp_x="0 : 0.5 : 1"
       inkscape:vp_y="0 : 1000 : 0"
       inkscape:vp_z="1 : 0.5 : 1"
       sodipodi:type="inkscape:persp3d" />
    <inkscape:perspective
       id="perspective3005"
       inkscape:persp3d-origin="0.5 : 0.33333333 : 1"
       inkscape:vp_x="0 : 0.5 : 1"
       inkscape:vp_y="0 : 1000 : 0"
       inkscape:vp_z="1 : 0.5 : 1"
       sodipodi:type="inkscape:persp3d" />
    <inkscape:perspective
       id="perspective3065"
       inkscape:persp3d-origin="0.5 : 0.33333333 : 1"
       inkscape:vp_x="0 : 0.5 : 1"
       inkscape:vp_y="0 : 1000 : 0"
       inkscape:vp_z="1 : 0.5 : 1"
       sodipodi:type="inkscape:persp3d" />
    <inkscape:perspective
       id="perspective3088"
       inkscape:persp3d-origin="0.5 : 0.33333333 : 1"
       inkscape:vp_x="0 : 0.5 : 1"
       inkscape:vp_y="0 : 1000 : 0"
       inkscape:vp_z="1 : 0.5 : 1"
       sodipodi:type="inkscape:persp3d" />
    <inkscape:perspective
       id="perspective3111"
       inkscape:persp3d-origin="0.5 : 0.33333333 : 1"
       inkscape:vp_x="0 : 0.5 : 1"
       inkscape:vp_y="0 : 1000 : 0"
       inkscape:vp_z="1 : 0.5 : 1"
       sodipodi:type="inkscape:persp3d" />
    <inkscape:perspective
       id="perspective3134"
       inkscape:persp3d-origin="0.5 : 0.33333333 : 1"
       inkscape:vp_x="0 : 0.5 : 1"
       inkscape:vp_y="0 : 1000 : 0"
       inkscape:vp_z="1 : 0.5 : 1"
       sodipodi:type="inkscape:persp3d" />
    <inkscape:perspective
       id="perspective3171"
       inkscape:persp3d-origin="0.5 : 0.33333333 : 1"
       inkscape:vp_x="0 : 0.5 : 1"
       inkscape:vp_y="0 : 1000 : 0"
       inkscape:vp_z="1 : 0.5 : 1"
       sodipodi:type="inkscape:persp3d" />
    <inkscape:perspective
       id="perspective3193"
       inkscape:persp3d-origin="0.5 : 0.33333333 : 1"
       inkscape:vp_x="0 : 0.5 : 1"
       inkscape:vp_y="0 : 1000 : 0"
       inkscape:vp_z="1 : 0.5 : 1"
       sodipodi:type="inkscape:persp3d" />
    <inkscape:perspective
       id="perspective3216"
       inkscape:persp3d-origin="0.5 : 0.33333333 : 1"
       inkscape:vp_x="0 : 0.5 : 1"
       inkscape:vp_y="0 : 1000 : 0"
       inkscape:vp_z="1 : 0.5 : 1"
       sodipodi:type="inkscape:persp3d" />
    <inkscape:perspective
       id="perspective3239"
       inkscape:persp3d-origin="0.5 : 0.33333333 : 1"
       inkscape:vp_x="0 : 0.5 : 1"
       inkscape:vp_y="0 : 1000 : 0"
       inkscape:vp_z="1 : 0.5 : 1"
       sodipodi:type="inkscape:persp3d" />
    <inkscape:perspective
       id="perspective3261"
       inkscape:persp3d-origin="0.5 : 0.33333333 : 1"
       inkscape:vp_x="0 : 0.5 : 1"
       inkscape:vp_y="0 : 1000 : 0"
       inkscape:vp_z="1 : 0.5 : 1"
       sodipodi:type="inkscape:persp3d" />
    <inkscape:perspective
       id="perspective3284"
       inkscape:persp3d-origin="0.5 : 0.33333333 : 1"
       inkscape:vp_x="0 : 0.5 : 1"
       inkscape:vp_y="0 : 1000 : 0"
       inkscape:vp_z="1 : 0.5 : 1"
       sodipodi:type="inkscape:persp3d" />
    <inkscape:perspective
       id="perspective3307"
       inkscape:persp3d-origin="0.5 : 0.33333333 : 1"
       inkscape:vp_x="0 : 0.5 : 1"
       inkscape:vp_y="0 : 1000 : 0"
       inkscape:vp_z="1 : 0.5 : 1"
       sodipodi:type="inkscape:persp3d" />
    <inkscape:perspective
       id="perspective3330"
       inkscape:persp3d-origin="0.5 : 0.33333333 : 1"
       inkscape:vp_x="0 : 0.5 : 1"
       inkscape:vp_y="0 : 1000 : 0"
       inkscape:vp_z="1 : 0.5 : 1"
       sodipodi:type="inkscape:persp3d" />
    <inkscape:perspective
       id="perspective3353"
       inkscape:persp3d-origin="0.5 : 0.33333333 : 1"
       inkscape:vp_x="0 : 0.5 : 1"
       inkscape:vp_y="0 : 1000 : 0"
       inkscape:vp_z="1 : 0.5 : 1"
       sodipodi:type="inkscape:persp3d" />
    <inkscape:perspective
       id="perspective3400"
       inkscape:persp3d-origin="0.5 : 0.33333333 : 1"
       inkscape:vp_x="0 : 0.5 : 1"
       inkscape:vp_y="0 : 1000 : 0"
       inkscape:vp_z="1 : 0.5 : 1"
       sodipodi:type="inkscape:persp3d" />
    <inkscape:perspective
       id="perspective3423"
       inkscape:persp3d-origin="0.5 : 0.33333333 : 1"
       inkscape:vp_x="0 : 0.5 : 1"
       inkscape:vp_y="0 : 1000 : 0"
       inkscape:vp_z="1 : 0.5 : 1"
       sodipodi:type="inkscape:persp3d" />
    <inkscape:perspective
       id="perspective3446"
       inkscape:persp3d-origin="0.5 : 0.33333333 : 1"
       inkscape:vp_x="0 : 0.5 : 1"
       inkscape:vp_y="0 : 1000 : 0"
       inkscape:vp_z="1 : 0.5 : 1"
       sodipodi:type="inkscape:persp3d" />
    <inkscape:perspective
       id="perspective3495"
       inkscape:persp3d-origin="0.5 : 0.33333333 : 1"
       inkscape:vp_x="0 : 0.5 : 1"
       inkscape:vp_y="0 : 1000 : 0"
       inkscape:vp_z="1 : 0.5 : 1"
       sodipodi:type="inkscape:persp3d" />
    <inkscape:perspective
       id="perspective3518"
       inkscape:persp3d-origin="0.5 : 0.33333333 : 1"
       inkscape:vp_x="0 : 0.5 : 1"
       inkscape:vp_y="0 : 1000 : 0"
       inkscape:vp_z="1 : 0.5 : 1"
       sodipodi:type="inkscape:persp3d" />
    <inkscape:perspective
       id="perspective3541"
       inkscape:persp3d-origin="0.5 : 0.33333333 : 1"
       inkscape:vp_x="0 : 0.5 : 1"
       inkscape:vp_y="0 : 1000 : 0"
       inkscape:vp_z="1 : 0.5 : 1"
       sodipodi:type="inkscape:persp3d" />
    <inkscape:perspective
       id="perspective3577"
       inkscape:persp3d-origin="0.5 : 0.33333333 : 1"
       inkscape:vp_x="0 : 0.5 : 1"
       inkscape:vp_y="0 : 1000 : 0"
       inkscape:vp_z="1 : 0.5 : 1"
       sodipodi:type="inkscape:persp3d" />
    <inkscape:perspective
       id="perspective3600"
       inkscape:persp3d-origin="0.5 : 0.33333333 : 1"
       inkscape:vp_x="0 : 0.5 : 1"
       inkscape:vp_y="0 : 1000 : 0"
       inkscape:vp_z="1 : 0.5 : 1"
       sodipodi:type="inkscape:persp3d" />
    <inkscape:perspective
       id="perspective3625"
       inkscape:persp3d-origin="0.5 : 0.33333333 : 1"
       inkscape:vp_x="0 : 0.5 : 1"
       inkscape:vp_y="0 : 1000 : 0"
       inkscape:vp_z="1 : 0.5 : 1"
       sodipodi:type="inkscape:persp3d" />
    <inkscape:perspective
       id="perspective3649"
       inkscape:persp3d-origin="0.5 : 0.33333333 : 1"
       inkscape:vp_x="0 : 0.5 : 1"
       inkscape:vp_y="0 : 1000 : 0"
       inkscape:vp_z="1 : 0.5 : 1"
       sodipodi:type="inkscape:persp3d" />
    <inkscape:perspective
       id="perspective3687"
       inkscape:persp3d-origin="0.5 : 0.33333333 : 1"
       inkscape:vp_x="0 : 0.5 : 1"
       inkscape:vp_y="0 : 1000 : 0"
       inkscape:vp_z="1 : 0.5 : 1"
       sodipodi:type="inkscape:persp3d" />
    <inkscape:perspective
       id="perspective3710"
       inkscape:persp3d-origin="0.5 : 0.33333333 : 1"
       inkscape:vp_x="0 : 0.5 : 1"
       inkscape:vp_y="0 : 1000 : 0"
       inkscape:vp_z="1 : 0.5 : 1"
       sodipodi:type="inkscape:persp3d" />
    <inkscape:perspective
       id="perspective3758"
       inkscape:persp3d-origin="0.5 : 0.33333333 : 1"
       inkscape:vp_x="0 : 0.5 : 1"
       inkscape:vp_y="0 : 1000 : 0"
       inkscape:vp_z="1 : 0.5 : 1"
       sodipodi:type="inkscape:persp3d" />
    <inkscape:perspective
       id="perspective3781"
       inkscape:persp3d-origin="0.5 : 0.33333333 : 1"
       inkscape:vp_x="0 : 0.5 : 1"
       inkscape:vp_y="0 : 1000 : 0"
       inkscape:vp_z="1 : 0.5 : 1"
       sodipodi:type="inkscape:persp3d" />
    <inkscape:perspective
       id="perspective3804"
       inkscape:persp3d-origin="0.5 : 0.33333333 : 1"
       inkscape:vp_x="0 : 0.5 : 1"
       inkscape:vp_y="0 : 1000 : 0"
       inkscape:vp_z="1 : 0.5 : 1"
       sodipodi:type="inkscape:persp3d" />
    <inkscape:perspective
       id="perspective3827"
       inkscape:persp3d-origin="0.5 : 0.33333333 : 1"
       inkscape:vp_x="0 : 0.5 : 1"
       inkscape:vp_y="0 : 1000 : 0"
       inkscape:vp_z="1 : 0.5 : 1"
       sodipodi:type="inkscape:persp3d" />
    <inkscape:perspective
       id="perspective3850"
       inkscape:persp3d-origin="0.5 : 0.33333333 : 1"
       inkscape:vp_x="0 : 0.5 : 1"
       inkscape:vp_y="0 : 1000 : 0"
       inkscape:vp_z="1 : 0.5 : 1"
       sodipodi:type="inkscape:persp3d" />
    <inkscape:perspective
       id="perspective3020"
       inkscape:persp3d-origin="0.5 : 0.33333333 : 1"
       inkscape:vp_x="0 : 0.5 : 1"
       inkscape:vp_y="0 : 1000 : 0"
       inkscape:vp_z="1 : 0.5 : 1"
       sodipodi:type="inkscape:persp3d" />
    <inkscape:perspective
       id="perspective3043"
       inkscape:persp3d-origin="0.5 : 0.33333333 : 1"
       inkscape:vp_x="0 : 0.5 : 1"
       inkscape:vp_y="0 : 1000 : 0"
       inkscape:vp_z="1 : 0.5 : 1"
       sodipodi:type="inkscape:persp3d" />
    <inkscape:perspective
       id="perspective3071"
       inkscape:persp3d-origin="0.5 : 0.33333333 : 1"
       inkscape:vp_x="0 : 0.5 : 1"
       inkscape:vp_y="0 : 1000 : 0"
       inkscape:vp_z="1 : 0.5 : 1"
       sodipodi:type="inkscape:persp3d" />
  </defs>
  <sodipodi:namedview
     bordercolor="#666666"
     borderopacity="1"
     gridtolerance="10"
     guidetolerance="10"
     id="namedview303"
     inkscape:current-layer="svg2"
     inkscape:cx="2052.0238"
     inkscape:cy="818.82962"
     inkscape:deskcolor="#d1d1d1"
     inkscape:guide-bbox="true"
     inkscape:pagecheckerboard="0"
     inkscape:pageopacity="0"
     inkscape:pageshadow="2"
     inkscape:showpageshadow="2"
     inkscape:window-height="705"
     inkscape:window-maximized="1"
     inkscape:window-width="1366"
     inkscape:window-x="-8"
     inkscape:window-y="-8"
     inkscape:zoom="0.3535534"
     objecttolerance="10"
     pagecolor="#ffffff"
     showgrid="false"
     showguides="true" />
  <title
     id="title4"> SVG from Global Mapper </title>
  <g
     id="g3262">
    <path
       d="m -795407.6,4441129.5 -7.41,75.5 23.03,15.6 15.58,5 4.6,6.2 2.67,2.6 5.73,-5.2 8.83,-18.4 15.19,-2.8 5.47,11.8 4.09,27.6 4.09,-2 1.35,6.2 18.72,-23.1 0.11,-32.7 15,-15.2 2.08,-6.6 -4.45,-3.6 -16.13,-0.5 -10.04,-1.3 -3.58,4.7 -13.14,-2.6 -4.01,-4.8 -8.07,-0.7 -0.18,7.9 -5.4,-3 0.58,7.8 -0.1,0 -12.01,1.3 -9.53,-4 -11.86,-10.8 -16.75,-31.5 -4.49,-3.4 z"
       id="Laredo"
       sodipodi:nodetypes="ccccccccccccccccccccccccccccccccc"
       style="fill:#d7f4d7;fill-opacity:1;stroke:#000000;stroke-width:2.99999998;stroke-linecap:round;stroke-miterlimit:4;stroke-opacity:1;stroke-dasharray:none">
      <title
         id="title1">Laredo</title>
    </path>
    <path
       d="m -795269.34,4441169.9 -19.05,4.1 -2.12,6.6 -15,15.2 -0.11,32.7 -18.73,23.1 -5.29,6.7 18.91,12.7 3.32,16.8 6.72,9.1 15.51,3.3 15.22,11.1 8.87,-2.2 25.29,-24.9 1.17,-20.9 7.52,-8.2 26.43,-16.8 15.22,2.1 -1.09,-23.1 -4.3,-9.3 1.07,-11.8 4.28,-8.3 -4.45,-11.2 1.9,-3.6 -12.38,0.7 -7.99,3.9 -13.36,-5.9 -24.24,9.7 -11.49,0.6 -10.37,-3 1.61,-4.7 -3.07,-4.5 z"
       id="Liendo"
       sodipodi:nodetypes="cccccccccccccccccccccccccccccccc"
       style="fill:#eeebd3;fill-opacity:1;stroke:#000000;stroke-width:2.99999998;stroke-linecap:round;stroke-miterlimit:4;stroke-opacity:1;stroke-dasharray:none">
      <title
         id="title2">Liendo</title>
    </path>
    <path
       d="m -795432.43,4441201.1 4.45,0.9 13.02,3 23.04,15.7 15.59,4.9 4.59,6.3 2.68,2.5 7.04,6.7 1.3,14.4 5.64,5.7 26.16,8.9 -34.97,1.4 -5.72,-16.9 -13.35,7.8 -27.64,-17.1 -8.4,-8.9 -15.93,-5.1 -2.7,-12.2 5.2,-18 z"
       id="Colindres"
       style="fill:#d7f4d7;fill-opacity:1;stroke:#000000;stroke-width:2.99999998;stroke-linecap:round;stroke-miterlimit:4;stroke-opacity:1;stroke-dasharray:none">
      <title
         id="title3">Colindres</title>
    </path>
    <path
       d="m -795499.51,4441235.3 -6.72,4.5 -0.1,0 -9.09,-1.6 0,0 -10.36,6.4 -4.35,2.6 -0.36,0.2 0,0 -0.1,0.1 -0.73,5.5 0,0 0,0 0,0 -9.16,2.2 0,0 -13.07,7.1 -0.1,0.1 -16.86,-12.7 0,0 -12.48,3.8 -17.2,31.9 -5.4,17.3 -19.75,12 -7,11.6 0.18,14.4 7.15,4.6 -2.92,21.5 5.81,7.5 1.78,13 8.22,4.6 5.84,8.4 11.46,2.7 -4.86,12.8 88.59,23.6 29.2,1.4 8.47,-4.2 11.46,0.7 9.96,-3.2 2.92,-10.3 -6.82,-1.7 4.01,-14.2 9.53,-20.6 18.91,-23.7 7.7,-17.1 11.94,-9.3 10.95,-15.8 15.36,-4 5.15,-4.2 3.47,-15.2 -14.79,-4.9 -3.94,-11 5.11,-10.2 -0.18,-5.2 -30,-18.7 0,-0.1 -0.11,-0.1 0,0.1 -9.17,-6 -7.22,7.9 -8.84,1.8 -2.11,13 -10.05,8.5 -9.08,-8.5 -7.04,-9.4 -6.14,-0.6 -0.1,0 0,0 0,0 -2.23,-7.7 -12.37,-0.6 0,0 -12.15,-11 z"
       id="Voto"
       sodipodi:nodetypes="ccccccccccccccccccccccccccccccccccccccccccccccccccccccccccccccccccccccccc"
       style="fill:#eeebd3;fill-opacity:1;stroke:#000000;stroke-width:2.99999998;stroke-linecap:round;stroke-miterlimit:4;stroke-opacity:1;stroke-dasharray:none">
      <title
         id="title5">Voto</title>
    </path>
    <path
       d="m -795413.04,4441245.1 2.55,0.2 -2.55,-0.2 z m 112.35,51.8 -14.2,7.8 -20.26,2.8 -9.6,-2.1 -7.12,5 -20.62,2.8 -5.15,4.2 -15.4,4.1 -10.91,15.7 0,0 -11.9,9.3 -7.7,17.1 -18.91,23.7 -9.53,20.6 -4.01,14.2 6.79,1.7 0,0 -2.92,10.3 18.44,10.5 -7.16,16.1 8.18,-0.1 14.67,-9.7 18.18,-4.2 -11.61,-24.2 6.72,3 2.52,-6.5 -4.02,-9.6 4.53,-4 6.97,3.5 7.08,-14.4 0.33,-8.2 -7.88,-9.3 16.31,-4.4 1.9,-4.1 45.48,3.9 18.43,8.4 5.92,7.9 14.05,6.7 10.26,15.3 7.62,-1.8 28,17.7 -3.69,-27.8 -21.93,-56.4 2.88,-31.1 -15.22,-11.1 -15.51,-3.3 z"
       id="Ampuero"
       sodipodi:nodetypes="ccccccccccccccccccccccccccccccccccccccccccccccccc"
       style="fill:#eeebd3;fill-opacity:1;stroke:#000000;stroke-width:2.99999998;stroke-linecap:round;stroke-miterlimit:4;stroke-opacity:1;stroke-dasharray:none">
      <title
         id="title6">Ampuero</title>
    </path>
    <path
       d="m -795632.3,4441340.7 -24.9,11 -35.62,9.1 -13.76,10.2 -21.83,20 -15.77,27.3 -9.74,7.3 -2.08,7.7 -10.08,6.6 3.8,10.5 9.45,10.2 40.55,1.5 9.82,-8.9 15.3,-3.4 16.9,4.2 -3.69,13.8 20.66,21.6 -0.33,38.7 -5.15,17.5 16.72,15 20.55,5.9 19.71,0.9 -1.24,-7.9 66.51,2.7 38.36,-5.2 43.4,-55.9 1.82,-7.5 -13.36,-27.6 7.01,-22.6 7.15,-9.3 -9.96,3.2 -11.46,-0.7 -8.47,4.2 -29.2,-1.4 -88.59,-23.6 4.86,-12.8 -11.46,-2.7 -5.84,-8.4 -8.22,-4.6 -1.78,-13 -5.81,-7.5 2.92,-21.5 -7.15,-4.6 z m -220.32,189.8 -17.74,6.1 -9.23,9.9 20.29,38.3 19.16,0.5 6.83,-5.7 18.39,6.7 13.04,11 21.13,-2.8 -6.64,-8.7 14.6,-8.5 -14.49,-18.5 -1.79,-7.8 -9.79,-3.9 -16.02,2.2 -12.12,-14.6 -7.26,-1.8 -18.36,-2.4 z"
       id="Ruesga"
       style="fill:#eeebd3;fill-opacity:1;stroke:#000000;stroke-width:2.99999998;stroke-linecap:round;stroke-miterlimit:4;stroke-opacity:1;stroke-dasharray:none">
      <title
         id="title7">Ruesga</title>
    </path>
    <path
       d="m -795376.98,4441368.5 -1.9,4.1 -16.31,4.4 7.88,9.3 -0.33,8.2 -7.08,14.4 -6.97,-3.5 -4.53,4 4.02,9.6 -2.52,6.5 -6.72,-3 11.61,24.2 -18.18,4.2 -14.67,9.7 12.74,0.9 19.12,9.1 6.39,-2 8.87,4.8 10.55,-6.9 7.37,5.8 -0.87,3.8 9.05,12.4 3.14,-2.5 25.11,15.6 14.93,11.3 9.45,13 7.19,-0.1 9.75,-14.6 8.8,-0.8 16.86,-8.7 17.96,5.2 33.03,-13.3 1.1,-9.7 -6.14,-28.5 15.81,-10.1 -0.88,-4.8 -25,3.9 -2.55,-2.7 -4.79,0.3 -11.53,-15.4 -28,-17.7 -7.62,1.8 -10.26,-15.3 -14.05,-6.7 -5.92,-7.9 -18.43,-8.4 -45.48,-3.9 z"
       id="Rasines"
       style="fill:#eeebd3;fill-opacity:1;stroke:#000000;stroke-width:2.99999998;stroke-linecap:round;stroke-miterlimit:4;stroke-opacity:1;stroke-dasharray:none">
      <title
         id="title8">Rasines</title>
    </path>
    <path
       d="m -795812.21,4441438.3 18.1,-3.3 28.02,4.9 3.8,10.5 9.47,10.2 40.56,1.5 9.81,-8.9 15.3,-3.4 16.9,4.2 -3.71,13.8 20.66,21.6 -0.32,38.7 -5.14,17.5 16.69,15.1 -8.07,14.9 -36.39,4.9 -4.63,4 0.38,5.5 -20.39,4.9 -21.17,-4.8 -2.43,5 -15.93,2.1 -30.07,-2.7 -6.62,-8.7 14.58,-8.5 -14.48,-18.5 -1.79,-7.8 -9.78,-3.9 -16.04,2.2 -12.09,-14.6 -7.29,-1.8 -2.48,-14 11.29,-11.6 -1.03,-12 10.53,-11.8 -5.01,-8.8 4.45,-11.6 -7.33,-2.8 9.48,-5.8 2.17,-16.2 z"
       id="Arredondo"
       style="fill:#eeebd3;fill-opacity:1;stroke:#000000;stroke-width:2.99999998;stroke-linecap:round;stroke-miterlimit:4;stroke-opacity:1;stroke-dasharray:none">
      <title
         id="title9">Arredondo</title>
    </path>
    <path
       d="m -795452.17,4441434.1 -7.16,9.3 -6.97,22.6 13.36,27.6 -1.82,7.5 -43.4,55.9 34.27,5.7 20.41,-5.6 5.84,8.2 10.95,1.3 13.98,10.3 3.61,-0.5 24.09,13.7 10.37,-12.8 13.17,5 8.18,-2.7 14.12,-13.9 -5.22,-6.7 12.23,-1.7 13.73,11.2 12.99,-15.8 5.8,-26.9 -7.19,0.1 -9.45,-13 -14.93,-11.3 -25.11,-15.6 -3.14,2.5 -9.05,-12.4 0.87,-3.8 -7.37,-5.8 -10.55,6.9 -8.87,-4.8 -6.39,2 -19.12,-9.1 -12.74,-0.9 -8.18,0.1 7.12,-16.1 -18.43,-10.5 z"
       id="Ramales de la Victoria"
       style="fill:#eeebd3;fill-opacity:1;stroke:#000000;stroke-width:2.99999998;stroke-linecap:round;stroke-miterlimit:4;stroke-opacity:1;stroke-dasharray:none">
      <title
         id="title10">Ramales de la Victoria</title>
    </path>
    <path
       d="m -795498.16,4441557 -38.36,5.2 -66.51,-2.7 1.24,7.9 -19.71,-0.9 -20.55,-5.9 -8.06,15 -36.43,4.9 -4.6,4 0.36,5.5 -20.36,4.9 -21.21,-4.8 -2.41,5 -15.95,2.1 -30.04,-2.7 -21.13,2.8 -13.04,-11 -18.39,-6.7 -6.83,5.7 -19.16,-0.5 2.41,16.9 -7.99,7 -6.98,18.3 7.19,22.4 14.79,22.8 1.24,11.5 12.3,12.4 5.66,29.4 21.9,15 30.44,2.7 -3.69,-16.1 12.78,-7.8 5.4,4.4 5.26,-0.4 7.19,7.5 13.28,1.2 4.38,6.2 13.47,-2.4 19.97,10.2 7.48,13.5 8.47,32.8 7.04,-5.4 25.08,-5.9 22.85,3.8 20.58,7.8 31.47,3.2 23.18,12.1 39.89,14.7 11.32,-0.1 27.08,7.8 11.86,-6.5 38.25,0 25.37,10.6 5.62,-3.1 14.46,2.3 6.9,-4.2 13.9,3.1 7.63,-2.5 -8.5,-44.7 -6.39,-7 -2.3,-10.6 -11.1,-25.2 -2.48,-63.7 2.34,-6.7 3.39,-9.6 -21.9,-36.6 -5.07,-21.7 -4.09,-4.8 0.48,-8.2 5.43,-3.4 13.55,6.6 3.5,-4.3 -24.09,-13.7 -3.61,0.5 -13.98,-10.3 -10.95,-1.3 -5.84,-8.2 -20.41,5.6 -34.27,-5.7 z"
       id="Soba"
       style="fill:#eeebd3;fill-opacity:1;stroke:#000000;stroke-width:2.99999998;stroke-linecap:round;stroke-miterlimit:4;stroke-opacity:1;stroke-dasharray:none">
      <title
         id="title11">Soba</title>
    </path>
    <path
       d="m -795339.35,4441208 -15.15,2.8 -8.87,18.4 -5.69,5.2 7.05,6.7 1.27,14.4 5.66,5.7 26.17,8.9 -34.97,1.4 -5.73,-16.9 -13.36,7.8 -27.52,-17.1 -0.36,-0.4 -2.27,2.9 0.3,0.2 30,18.7 0.18,5.2 -5.11,10.2 3.94,11 14.79,4.9 -3.47,15.2 20.62,-2.8 7.12,-5 9.6,2.1 20.26,-2.8 14.2,-7.8 -6.72,-9.1 -3.32,-16.8 -18.91,-12.7 5.29,-6.7 -1.31,-6.2 -4.12,2 -4.09,-27.6 -5.48,-11.8 z"
       id="Limpias"
       style="fill:#eeebd3;fill-opacity:1;stroke:#000000;stroke-width:2.99999998;stroke-linecap:round;stroke-miterlimit:4;stroke-opacity:1;stroke-dasharray:none">
      <title
         id="title12">Limpias</title>
    </path>
    <path
       d="m -796057.32,4440989 -13.57,5 -1.36,4.6 -8.65,-0.4 -1.31,7.1 -6.46,-0.2 -7.37,7.5 1.68,3.1 -8.47,3.6 3.21,3.7 -7.63,6.8 2.3,-8.7 -6.21,-6.7 -35.4,18.9 -7.19,-0.1 -1.28,-2.9 -17.45,1.2 -5,0.8 -4.81,0.5 11.53,15.6 9.71,27.1 -30.7,13.3 -3.21,8.6 1.42,11.2 2.92,7.3 6.1,4 69.06,3.2 5.77,6.5 19.01,-3.3 -2.01,-3.5 26.83,-0.5 0,-8.2 -25.15,0.8 -0.62,-5 4.97,-4.9 18.94,5.3 2.7,-5.9 -16.24,-4.8 2.81,-2.8 -2.77,-6.7 5.25,-2 2.08,10.5 12.27,-3.5 9.92,-17 13.18,-10.7 10.26,-1.6 5.36,-1 9.9,1.4 28.17,-14 9.71,3.8 6.06,-3 -7.41,-8.9 -8.76,0.5 -5.8,4.5 -16.32,-12.9 -7.19,-12.7 17.41,-13.7 -16.6,0.5 5.51,-7.2 -1.13,-6.8 -30.85,-1.6 -17.12,-5.7 z m -115.59,37.7 -4.13,2.6 -0.47,1.7 4.05,-0.4 0.11,-3.1 0.44,-0.8 z"
       id="Santander"
       style="fill:#808080;fill-opacity:1;stroke:#000000;stroke-width:2.99999998;stroke-linecap:round;stroke-miterlimit:4;stroke-opacity:1;stroke-dasharray:none">
      <title
         id="title13">Santander</title>
    </path>
    <path
       d="m -796223.98,4441028.5 -5.98,2.9 2.08,4.8 -1.06,0.3 -2.05,3.1 -12.63,-3.1 8.47,31.4 -9.45,8.9 -1.06,15.7 -9.78,6.8 -1.46,65.3 3.47,22.8 17.48,-0.2 2.04,-5.4 11.98,-4.5 12.92,-23.6 -12.16,-28.9 25.66,-9.9 1.97,-6.3 -1.42,-11.2 3.21,-8.6 30.7,-13.3 -9.71,-27.1 -11.53,-15.6 -14.86,7.9 -5.04,-3.5 3.4,-1.9 -1.57,-4.7 -25.77,5.3 -1.72,-3.1 4.6,-1.8 -0.73,-2.5 z"
       id="Bezana"
       style="fill:#d7f4d7;fill-opacity:1;stroke:#000000;stroke-width:2.99999998;stroke-linecap:round;stroke-miterlimit:4;stroke-opacity:1;stroke-dasharray:none">
      <title
         id="title14">Bezana</title>
    </path>
    <path
       d="m -796243.62,4441036.5 -28.98,8.2 4.05,3 -6.09,4.1 -4.93,-4.9 -14.85,2 -23.99,33.3 -33.69,24.9 12.23,3.2 7.63,-0.4 6.31,-4.6 6.54,1.1 5.62,0.9 6.2,10.6 -1.24,6.2 -15.87,5 9.67,22.6 -2.52,15.1 -36.57,20.9 -0.62,11.8 -15.81,11.9 -19.38,0.6 -10.44,4.6 -3.65,-3.3 -17.23,9.3 4.16,11 13.25,4.1 24.57,21.9 0.84,10 -2.23,10.7 -9.31,14.6 -17.59,18.6 -10.15,53 14.06,3.9 42.59,-17.2 4.2,0.6 -4.56,4.9 6.64,6.4 15.26,-0.2 12.74,7.7 14.89,-6.4 4.82,2.2 47.34,-16.9 8.43,-6.7 29.2,0.3 -3.69,-7.2 5.04,-11.2 24.49,-25.7 7.19,-21.6 43.26,-27.1 3.28,-12.9 -2.3,-6 -26.28,4.1 -17.23,12.6 -25.47,-2.1 -25.26,20.5 -12.49,-1 -5.54,-6 5.11,-8.5 3.13,-34.3 -4.12,-28 -0.47,-3.3 -3.47,-22.8 1.46,-65.3 9.78,-6.8 1.06,-15.7 9.45,-8.9 -8.47,-31.4 z"
       id="Piélagos"
       sodipodi:nodetypes="cccccccccccccccccccccccccccccccccccccccccccccccccccccccccccccccccccc"
       style="fill:#808080;fill-opacity:1;stroke:#000000;stroke-width:2.99999998;stroke-linecap:round;stroke-miterlimit:4;stroke-opacity:1;stroke-dasharray:none">
      <title
         id="title15">Piélagos</title>
    </path>
    <path
       d="m -796090.69,4441126.3 5.65,10.6 13.6,1.1 7.94,6 5.07,4.2 14.48,4.8 -2.38,7 -6.02,-0.3 -9.13,14.1 -10.25,1.9 -3.32,4.2 -8.94,4.8 -3.3,8.9 -3.42,0.8 -8.37,-1.5 -10.79,-14.1 -4.26,2.4 -25.77,33.6 -4.91,18.6 -26.28,4.1 -17.22,12.6 -25.49,-2.1 -25.27,20.5 -12.47,-1 -5.54,-6 5.11,-8.5 3.14,-34.3 -4.12,-27.9 -0.51,-3.4 17.51,-0.2 2.02,-5.4 11.99,-4.5 12.92,-23.6 -12.15,-28.9 25.66,-9.9 1.99,-6.3 2.9,7.3 6.1,4 69.05,3.2 5.76,6.6 19.02,-3.4 z"
       id="Camargo"
       sodipodi:nodetypes="ccccccccccccccccccccccccccccccccccccccccc"
       style="fill:#808080;fill-opacity:1;stroke:#000000;stroke-width:2.99999998;stroke-linecap:round;stroke-miterlimit:4;stroke-opacity:1;stroke-dasharray:none">
      <title
         id="title16">Camargo</title>
    </path>
    <path
       d="m -796075.05,4441179.9 4.6,14.9 3.75,-2.2 -0.92,6.6 6.05,5.8 6.33,13.1 5.08,2.1 -5.06,6.3 -7.66,1.5 -34.29,-5.6 -14.93,12.9 -5.91,-1.9 -6.82,9 -19.98,-9 4.91,-18.6 25.77,-33.6 4.26,-2.4 10.79,14.1 8.37,1.5 3.42,-0.8 3.3,-8.9 8.94,-4.8 z"
       id="Astillero"
       style="fill:#d7f4d7;fill-opacity:1;stroke:#000000;stroke-width:2.99999998;stroke-linecap:round;stroke-miterlimit:4;stroke-opacity:1;stroke-dasharray:none">
      <title
         id="title17">Astillero</title>
    </path>
    <path
       d="m -796062.88,4441228 14.86,17.2 2.83,12.8 -3.73,20.6 -9.97,0.9 -6.39,-3.1 -39.24,9.2 -5.92,16.8 -13.68,2.8 -0.43,8.4 7.4,15.8 -12.1,7.5 -5.43,24 -26.5,11.8 -6.04,-6.7 -21.15,1.4 -12.62,-8.6 -20.61,-4.9 -0.48,-8.7 -3.68,-7.3 5.03,-11.2 24.48,-25.7 7.2,-21.6 43.26,-27.1 3.26,-12.8 -2.28,-6.1 19.98,9 6.82,-9 5.91,1.9 14.93,-12.9 34.29,5.6 z"
       id="Villaescusa"
       style="fill:#d7f4d7;fill-opacity:1;stroke:#000000;stroke-width:2.99999998;stroke-linecap:round;stroke-miterlimit:4;stroke-opacity:1;stroke-dasharray:none">
      <title
         id="title18">Villaescusa</title>
    </path>
    <path
       d="m -795146,4441187.7 -15.22,0.7 0.76,7.4 -4.09,4.7 -8.9,2.5 -4.31,8.5 -8.8,5.8 1.1,23.1 11.28,1.3 8.9,9.9 15.04,4.3 10.3,9.4 18.98,-8.7 -8.66,22.6 23.95,26.8 -0.77,31.4 6.72,8.3 -4.93,10.5 14.57,12.5 20.18,3.9 7.99,7.4 8.8,0.2 14.71,8.5 13.43,8.3 19.79,5.3 13.76,11.2 15.76,26.7 8.98,21.3 5.7,-2.3 10.51,-13.1 16.1,0.7 6.53,-3.5 41.58,-3.9 10.36,-12.8 3.32,-29.2 -8.32,-49.9 6.13,-18.7 -4.3,-10.3 -16.83,4.5 -15.81,-17.4 -4.92,4.2 -6.46,0 -8.36,-5.9 -3.65,-13.7 -8.14,3.6 -1.21,-4.8 -7.08,4.1 -3.21,-17.3 -4.67,-4.3 -12.52,-1 -3.29,-5.9 -3.39,3.6 -8.07,-4 3.8,-5.6 -6.13,2 -4.68,-13.2 15.74,6.6 -11.43,-10.8 -4.49,-2.1 -13.5,2.9 -3.14,-7.6 9.89,-5.8 -0.55,-5.8 -10.29,-5.7 -33.22,-6.1 -18.14,-10.4 -47.92,-0.2 -18.15,-7.1 -2.95,-1.9 -14.16,-5.7 z"
       id="Castro Urdiales"
       sodipodi:nodetypes="cccccccccccccccccccccccccccccccccccccccccccccccccccccccccccccccccccccc"
       style="fill:#808080;fill-opacity:1;stroke:#000000;stroke-width:2.99999998;stroke-linecap:round;stroke-miterlimit:4;stroke-opacity:1;stroke-dasharray:none">
      <title
         id="title19">Castro Urdiales</title>
    </path>
    <path
       d="m -795200.68,4441238.3 -26.43,16.8 -7.52,8.2 -1.17,20.9 -25.29,24.9 -8.87,2.2 -2.88,31.1 21.93,56.4 3.69,27.8 11.53,15.4 4.79,-0.3 12.62,13.7 15.81,-10.1 3.07,-7.2 15.58,22 14.82,-6.1 3.58,-5.5 32.99,-7.7 3.98,9.7 -3.36,8.8 6.25,5.6 20.87,0.8 19.31,-11.7 7.41,-2.2 6.17,4.6 12.05,-6.1 10.22,-15.3 41.83,-13.2 0.36,25.5 12.63,14.4 -0.76,11.5 15.87,7.7 7.56,-17.3 5.36,-2.2 -8.98,-21.2 -15.76,-26.7 -13.76,-11.2 -19.79,-5.3 -13.43,-8.3 -14.71,-8.5 -8.8,-0.2 -7.99,-7.4 -20.18,-3.9 -14.57,-12.5 4.93,-10.5 -6.72,-8.3 0.77,-31.4 -23.95,-26.8 8.66,-22.6 -18.98,8.7 -10.3,-9.4 -15.04,-4.3 -8.9,-9.9 -11.28,-1.3 -15.22,-2.1 z"
       id="Guriezo"
       style="fill:#eeebd3;fill-opacity:1;stroke:#000000;stroke-width:2.99999998;stroke-linecap:round;stroke-miterlimit:4;stroke-opacity:1;stroke-dasharray:none">
      <title
         id="title20">Guriezo</title>
    </path>
    <path
       d="m -795149.69,4441538.6 28.49,-7.5 16.46,-0.1 14.58,-10.2 7.82,-1.4 31.35,17 -3.72,28.2 -10.5,17.2 -20.75,13.9 -2.3,10.6 6.96,15.7 -8.88,12.4 11.15,26.4 -8.31,9.4 -24.97,4.8 -2.41,5.5 -10.79,-13.8 -12.19,-7.1 5.88,-9.3 3.74,-19.6 -6.98,-5.3 -0.8,-19.9 7.43,-25.9 -6.76,-5.5 -5.82,-12.7 -10.5,-8.6 4.23,-8.5 -2.41,-5.7 z"
       id="Valle de Villaverde"
       style="fill:#eeebd3;fill-opacity:1;stroke:#000000;stroke-width:2.99999998;stroke-linecap:round;stroke-miterlimit:4;stroke-opacity:1;stroke-dasharray:none">
      <title
         id="title21">Valle de Villaverde</title>
    </path>
    <path
       d="m -795983.69,4441096.5 0,6.6 -3.36,12.9 -8.47,8 -1.21,6.5 -11.35,5.6 -9.27,-1 -33.91,-23 -1.17,1.3 33.07,22.6 4.06,8.1 15.55,8.7 1.64,7.1 -16.35,4.3 -17.96,12.4 -15.88,-7.4 0.91,10.9 -12.15,21.3 1.82,2 6.35,13 4.64,2 15.58,-8.2 17.67,1.1 33.22,-18.3 2.48,3.2 7.12,-1.3 11.64,9.6 1.72,14.8 4.19,5.4 15.88,-0.7 27.19,9.9 5.92,-7.5 5.62,-25.3 24.67,-17.8 -7.41,-20.5 3.21,-4.8 -8.72,-1.1 -2.37,-15.3 -3.76,-3.6 -3.43,-18.9 -8.51,-9.5 -16.9,16.4 -2.81,9 -8.39,-0.2 -3.21,4 -10.08,-8.4 -12.99,8.3 -9.13,-7.6 2.19,-8.9 10.44,-7.3 -0.44,-15.7 -7.95,-1.3 -9.9,4.8 -6.02,-6.2 -3.68,0 z"
       id="Marina de Cudeyo"
       style="fill:#d7f4d7;fill-opacity:1;stroke:#000000;stroke-width:2.99999998;stroke-linecap:round;stroke-miterlimit:4;stroke-opacity:1;stroke-dasharray:none">
      <title
         id="title22">Marina de Cudeyo</title>
    </path>
    <path
       d="m -795910.03,4441233.9 5.92,-7.5 5.62,-25.3 24.67,-17.8 5.36,15 4.49,2.7 -0.53,7.2 12.63,-2 17.27,8.4 25.5,25.9 20.04,14.5 12.81,6.2 42.49,7.6 13.71,-4.6 16.34,16.7 -21.44,70.7 18.57,19.4 -21.83,20 -15.78,27.3 -20.16,-17.2 -5.93,-10 0.55,-8.6 -12.16,-16.9 -0.23,-22.5 -8.81,-20.8 -14.92,10.4 -13.91,-6.3 -10.15,0.2 -0.45,-4.2 -15.53,-3.9 -23.86,-12.9 -8.89,-9.1 -2.34,-2.5 6.54,-29.3 -20.15,-11 -16.72,-2.6 1.28,-17.2 z"
       id="Entrambasaguas"
       style="fill:#eeebd3;fill-opacity:1;stroke:#000000;stroke-width:2.99999998;stroke-linecap:round;stroke-miterlimit:4;stroke-opacity:1;stroke-dasharray:none">
      <title
         id="title23">Entrambasaguas</title>
    </path>
    <path
       d="m -796050.16,4441220.2 19.03,-9.9 17.66,1 33.22,-18.3 2.46,3.2 7.14,-1.2 11.64,9.5 1.72,14.8 4.18,5.4 15.89,-0.7 27.19,9.9 -1.28,17.2 16.72,2.6 20.15,11 -6.54,29.3 2.34,2.5 -14.84,11.2 -3.27,6.9 -5.67,0.7 -14.33,-3.2 -8.48,4.7 -10.86,-8.2 -31.27,-5.7 -17.38,-12.7 -13.18,-17.3 0.44,-14.2 -24.91,6.9 -26.53,13 3.73,-20.6 -2.83,-12.8 -14.86,-17.2 7.66,-1.5 5.06,-6.3 z"
       id="Medio Cudeyo"
       style="fill:#d7f4d7;fill-opacity:1;stroke:#000000;stroke-width:2.99999998;stroke-linecap:round;stroke-miterlimit:4;stroke-opacity:1;stroke-dasharray:none">
      <title
         id="title24">Medio Cudeyo</title>
    </path>
    <path
       d="m -796048.92,4441278.6 26.53,-13 24.91,-6.9 -0.44,14.2 13.18,17.3 17.38,12.7 31.27,5.7 10.86,8.2 8.48,-4.7 14.33,3.2 5.63,10.4 -2.32,4 -8.53,-3.9 -7.03,6.5 -3.74,37 8.87,7.2 16.5,2.1 2.77,18.5 9.44,-1.1 6.21,7.6 -7.52,7 -18.36,5.6 -3.9,-2.1 -6.98,4.7 -17.3,1.2 -8.57,20.1 -30.24,13 -8.54,7.8 -20.99,-12.7 3.47,-8.5 -3.35,-13.4 5.5,-20.3 -1.26,-8.6 -4.2,-4 -1.28,-15.2 -17.87,-10.7 -1.1,-8.4 -12.27,-10.4 -10.26,-31.9 -10.8,-9.2 3.84,-15.2 -2.32,-13.8 z"
       id="Lierganes"
       style="fill:#255957;fill-opacity:1;stroke:#000000;stroke-width:2.99999998;stroke-linecap:round;stroke-miterlimit:4;stroke-opacity:1;stroke-dasharray:none">
      <title
         id="title25">Lierganés</title>
    </path>
    <path
       d="m -796134.68,4441360.9 5.43,-24 12.1,-7.5 -7.4,-15.8 0.43,-8.4 13.68,-2.8 5.92,-16.8 39.24,-9.2 6.39,3.1 9.97,-0.9 2.32,13.8 -3.84,15.2 10.8,9.2 10.26,31.9 12.27,10.4 1.1,8.4 17.87,10.7 1.28,15.2 4.2,4 1.26,8.6 -5.5,20.3 3.35,13.4 -3.47,8.5 -21.41,3.6 -10.82,-6.1 -3.94,3 -9.82,-0.9 -26.84,-15.7 -10.89,-24.3 -53.94,-46.9 z"
       id="Penagos"
       style="fill:#255957;fill-opacity:1;stroke:#000000;stroke-width:2.99999998;stroke-linecap:round;stroke-miterlimit:4;stroke-opacity:1;stroke-dasharray:none">
      <title
         id="title26">Penagos</title>
    </path>
    <path
       d="m -795902.42,4441315.3 5.67,-0.7 3.27,-6.9 14.84,-11.2 8.89,9.1 23.86,12.9 15.53,3.9 0.45,4.2 10.15,-0.2 13.91,6.3 14.92,-10.4 8.81,20.8 0.23,22.5 12.16,16.9 -0.55,8.6 5.93,10 20.16,17.2 -9.73,7.3 -2.1,7.8 -10.07,6.5 -28.02,-4.9 -18.1,3.3 -12.84,-16.5 -10.98,7.8 -38.59,-26 -6.21,-7.6 -9.44,1.1 -2.77,-18.5 -16.5,-2.1 -8.87,-7.2 3.74,-37 7.03,-6.5 8.53,3.9 2.32,-4 -5.63,-10.4 z"
       id="Riotuerto"
       style="fill:#eeebd3;fill-opacity:1;stroke:#000000;stroke-width:2.99999998;stroke-linecap:round;stroke-miterlimit:4;stroke-opacity:1;stroke-dasharray:none">
      <title
         id="title27">Riotuerto</title>
    </path>
    <path
       d="m -796222.08,4441345.2 0.48,8.7 -1.92,12.3 15.93,15.4 5.76,29.4 -9.03,9.5 -50.92,12.5 11.74,27.6 -20.83,0.9 -10.12,-7.4 -43.71,-24.5 11.16,-5.4 -0.62,-4 -4.67,0.1 -1.53,-14.9 13.32,-37 47.32,-16.9 8.45,-6.7 29.19,0.4 z"
       id="Castañeda"
       style="fill:#255957;fill-opacity:1;stroke:#000000;stroke-width:2.99999998;stroke-linecap:round;stroke-miterlimit:4;stroke-opacity:1;stroke-dasharray:none">
      <title
         id="title28">Castañeda</title>
    </path>
    <path
       d="m -796403.63,4441370.4 42.59,-17.2 4.18,0.6 -4.53,4.9 6.61,6.4 15.26,-0.2 12.74,7.7 14.9,-6.4 4.84,2.2 -13.32,37 1.53,14.9 4.67,-0.1 0.62,4 -11.16,5.4 43.71,24.5 -30.57,15.3 16.89,24 -14.2,4.4 -22.47,14.9 4.02,29.7 -9.59,1.6 -16.56,15 -24.27,9.8 -12.16,-9 -9.86,-14.6 7.36,-31.4 -0.95,-17.3 -7.18,-19.8 3.67,-9.7 -20.71,-33.6 13.85,-18 6.1,-20.8 -6.01,-24.2 z"
       id="Puente Viesgo"
       style="fill:#255957;fill-opacity:1;stroke:#000000;stroke-width:2.99999998;stroke-linecap:round;stroke-miterlimit:4;stroke-opacity:1;stroke-dasharray:none">
      <title
         id="title29">Puente Viesgo</title>
    </path>
    <path
       d="m -796134.68,4441360.9 53.94,46.9 10.89,24.3 26.84,15.7 9.82,0.9 3.94,-3 10.82,6.1 21.41,-3.6 20.99,12.7 5.73,15.4 -6.21,6.7 -2.72,3.1 -14.42,0.7 -13.39,20.5 -30.97,0.8 -12.19,-3.7 -14.06,6.5 -15.59,-7.5 -2.81,-6.9 -11.45,-7.2 -2.53,-7.8 -7.04,1.3 -14.24,-0.5 -14.81,5.1 -19,-6.9 -3.63,-5 -42.79,2 -35.47,-7.4 -16.42,-9.5 -11.74,-27.6 50.92,-12.5 9.03,-9.5 -5.76,-29.4 -15.93,-15.4 1.92,-12.3 20.61,4.9 12.62,8.6 21.15,-1.4 6.04,6.7 26.5,-11.8 z"
       id="Santa María de Cayón"
       style="fill:#255957;fill-opacity:1;stroke:#000000;stroke-width:2.99999998;stroke-linecap:round;stroke-miterlimit:4;stroke-opacity:1;stroke-dasharray:none">
      <title
         id="title30">Santa María de Cayón</title>
    </path>
    <path
       d="m -795874.62,4441403.6 38.59,26 10.98,-7.8 12.84,16.5 -2.17,16.2 -9.48,5.8 7.33,2.8 -4.45,11.6 5.01,8.8 -10.53,11.8 1.03,12 -11.29,11.6 2.48,14 -18.33,-2.4 -17.76,6.1 -9.22,9.9 -5.6,-4.6 -11.01,5.3 -7.48,-1 -20.81,-10.4 -21.93,-32.5 -26.64,-15.1 -3.45,-5.2 6.21,-6.7 -5.73,-15.4 8.54,-7.8 30.24,-13 8.57,-20.1 17.3,-1.2 6.98,-4.7 3.9,2.1 18.36,-5.6 7.52,-7 z"
       id="Miera"
       style="fill:#255957;fill-opacity:1;stroke:#000000;stroke-width:2.99999998;stroke-linecap:round;stroke-miterlimit:4;stroke-opacity:1;stroke-dasharray:none">
      <title
         id="title31">Miera</title>
    </path>
    <path
       d="m -796280.99,4441454.1 10.12,7.4 20.83,-0.9 16.42,9.5 -24.89,11.6 2.7,8.1 -3.46,13.3 2.07,18.4 2.97,10 22.31,31.7 7.7,29.7 5.91,0.9 8.92,8 3.12,8.6 -1.54,13.8 12.27,25.4 -2.14,8.4 17.95,10 8.96,13.8 7.29,0.7 -13.8,16.5 6.58,11.9 4.58,2 -2.55,12 -21.61,16.2 -4.21,2.6 -19.91,-4.6 -17.54,-22 0.49,-8.6 5.37,-5.6 -6.2,-14.9 -35.13,-28.5 0.24,-5.3 -17.45,-18 0.15,-8 -8.86,-6.6 -3.79,-10.5 4.87,-20.8 -5.1,-10.4 1.09,-9.1 5.43,-9.4 -3.73,-7.7 -1.06,-19.2 8.23,-19.4 -7.28,-21.7 -16.89,-24 30.57,-15.3 z"
       id="Santiurde de Toranzo"
       style="fill:#255957;fill-opacity:1;stroke:#000000;stroke-width:2.99999998;stroke-linecap:round;stroke-miterlimit:4;stroke-opacity:1;stroke-dasharray:none">
      <title
         id="title32">Santiurde de Toranzo</title>
    </path>
    <path
       d="m -796103.68,4441482.8 -0.32,9.9 -8.42,12.3 -7.39,2.9 -1.67,13.1 4.33,11.5 0.73,18.2 4.19,5.1 0.65,7.9 -4.88,2.6 -16.26,5.9 -25.09,-1 -51.58,30.6 -8.92,-8 -5.91,-0.9 -7.7,-29.7 -22.31,-31.7 -2.97,-10 -2.07,-18.4 3.46,-13.3 -2.7,-8.1 24.89,-11.6 35.47,7.4 42.79,-2 3.63,5 19,6.9 14.81,-5.1 14.24,0.5 z"
       id="Villafufre"
       sodipodi:nodetypes="cccccccccccccccccccccccccccc"
       style="fill:#255957;fill-opacity:1;stroke:#000000;stroke-width:2.99999998;stroke-linecap:round;stroke-miterlimit:4;stroke-opacity:1;stroke-dasharray:none">
      <title
         id="title33">Villafufre</title>
    </path>
    <path
       d="m -796103.68,4441482.8 7.04,-1.3 2.53,7.8 11.45,7.2 2.81,6.9 15.59,7.5 14.06,-6.5 12.19,3.7 30.97,-0.8 13.39,-20.5 14.42,-0.7 11.44,15.9 -8.47,17.4 4.57,21.4 9.6,15.4 -7.3,17.2 -14.07,-3 -31.6,-16.5 -7.08,3.5 -6.13,-0.9 -17.59,-13.7 -6.8,-1.3 -8.32,5.6 -9.46,-0.6 -2.84,7 -5.6,3.1 -15.83,-4.8 -17.52,4 -4.19,-5.1 -0.73,-18.2 -4.33,-11.5 1.67,-13.1 7.39,-2.9 8.42,-12.3 0.32,-9.9 z"
       id="Saro"
       sodipodi:nodetypes="ccccccccccccccccccccccccccccccccccc"
       style="fill:#255957;fill-opacity:1;stroke:#000000;stroke-width:2.99999998;stroke-linecap:round;stroke-miterlimit:4;stroke-opacity:1;stroke-dasharray:none">
      <title
         id="title34">Saro</title>
    </path>
    <path
       d="m -795979.23,4441486.1 2.72,-3.1 3.45,5.2 26.64,15.1 21.93,32.5 20.81,10.4 7.48,1 11.01,-5.3 5.6,4.6 20.3,38.3 2.39,16.9 -7.98,7 -6.99,18.3 7.21,22.4 14.76,22.8 1.27,11.5 12.28,12.5 5.65,29.3 21.91,15 30.43,2.7 -8.69,4.6 -2.29,8.2 -8.07,5.6 -2.15,12.1 -15.5,6 -4.17,-4.5 -36.65,-10 -2.95,-29.7 -24.2,-23.6 -2.14,-22.9 -24.52,-24 4.05,-27.1 -12.29,-8.9 -1.62,-6.4 -16.48,-6.5 -0.95,-8.8 -8.96,-5.9 -21.98,-14.1 -1.47,-13.9 7.3,-17.2 -9.6,-15.4 -4.57,-21.4 8.47,-17.4 -11.44,-15.9 z"
       id="San Roque de Riomiera"
       style="fill:#255957;fill-opacity:1;stroke:#000000;stroke-width:2.99999998;stroke-linecap:round;stroke-miterlimit:4;stroke-opacity:1;stroke-dasharray:none">
      <title
         id="title35">San Roque de Riomiera</title>
    </path>
    <path
       d="m -796389.9,4441559.8 12.16,9 24.27,-9.8 16.56,-15 9.59,-1.6 -4.02,-29.7 22.47,-14.9 14.2,-4.4 7.28,21.7 -8.23,19.4 1.06,19.2 3.73,7.7 -5.43,9.4 -1.09,9.1 5.1,10.4 -4.87,20.8 3.79,10.5 8.86,6.6 -0.15,8 17.45,18 -0.24,5.3 35.13,28.5 6.2,14.9 -5.37,5.6 -0.49,8.6 17.54,22 -7.46,-2.2 -3.27,6.1 -62.43,22.9 -22.99,14.8 -0.16,-26.8 -22.15,-11.5 -6.3,-10.5 -6.74,-2.5 -5.81,-7.1 -4.82,-37.2 3.13,-2.3 -4.75,-21.3 -17.12,-41.1 -21.7,-21.7 10.52,-25 -5.59,-7 2.14,-6.9 z"
       id="Corvera de Toranzo"
       style="fill:#255957;fill-opacity:1;stroke:#000000;stroke-width:2.99999998;stroke-linecap:round;stroke-miterlimit:4;stroke-opacity:1;stroke-dasharray:none">
      <title
         id="title36">Corvera de Toranzo</title>
    </path>
    <path
       d="m -795969.39,4441573.4 1.47,13.9 21.98,14.1 -50.68,-9.7 -1.76,18.6 -9.66,7.6 -45.79,4.7 -1.49,20.8 -7.91,4.1 -7.92,18.1 30.34,25.2 2.59,32.7 -3.79,5.2 -10.36,4.4 -22.21,-3.2 -12.64,-17.7 -8.49,-6.2 -8.69,-1 -3.53,-13 -7.84,-3 -2.48,-4.4 -41.13,-5.8 -4.1,3.7 -7.29,-0.7 -8.96,-13.8 -17.95,-10 2.14,-8.4 -12.27,-25.4 1.54,-13.8 -3.12,-8.6 51.58,-30.6 25.09,1 16.26,-5.9 4.88,-2.6 -0.65,-7.9 17.52,-4 15.83,4.8 5.6,-3.1 2.84,-7 9.46,0.6 8.32,-5.6 6.8,1.3 17.59,13.7 6.13,0.9 7.08,-3.5 31.6,16.5 14.07,3 z"
       id="Villacarriedo"
       style="fill:#255957;fill-opacity:1;stroke:#000000;stroke-width:2.99999998;stroke-linecap:round;stroke-miterlimit:4;stroke-opacity:1;stroke-dasharray:none">
      <title
         id="title37">Villacarriedo</title>
    </path>
    <path
       d="m -795883.03,4441711.9 -28.66,10.7 -10.62,-1 -1.18,5.4 -9.51,4.7 -15.31,-3.7 -9.41,7.8 -13.59,-7.8 -14.54,5.3 -3.57,-2 -10.12,5.6 -9.75,-0.1 -20.65,-9.3 -12.07,1.2 3.79,-5.2 -2.59,-32.7 -30.34,-25.2 7.92,-18.1 7.91,-4.1 1.49,-20.8 45.79,-4.7 9.66,-7.6 1.76,-18.6 50.68,9.7 8.96,5.9 0.95,8.8 16.48,6.5 1.62,6.4 12.29,8.9 -4.05,27.1 24.52,24 2.14,22.9 z"
       id="Selaya"
       style="fill:#255957;fill-opacity:1;stroke:#000000;stroke-width:2.99999998;stroke-linecap:round;stroke-miterlimit:4;stroke-opacity:1;stroke-dasharray:none">
      <title
         id="title38">Selaya</title>
    </path>
    <path
       d="m -796170.7,4441710.9 -6.58,-11.9 13.8,-16.5 4.1,-3.7 41.13,5.8 2.48,4.4 7.84,3 3.53,13 8.69,1 8.49,6.2 12.64,17.7 22.21,3.2 10.36,-4.4 12.07,-1.2 20.65,9.3 9.75,0.1 10.12,-5.6 3.57,2 14.54,-5.3 13.59,7.8 9.41,-7.8 15.31,3.7 9.51,-4.7 1.18,-5.4 10.62,1 28.66,-10.7 24.2,23.6 2.95,29.7 36.65,10 4.17,4.5 0.21,9.1 -13.77,20.4 -2.51,12.1 3.27,2.2 -20.02,22.3 -15.95,7.5 1.72,12.5 -3.13,4.2 -17.17,5.2 -8.89,13.1 -16.16,8.4 -18.2,5.1 -17.41,0.7 -13.93,7.4 -13.47,0.1 -27.02,-11 -7.77,-12 -0.12,-7.5 -23.48,-36.5 -10.24,-8.3 -11.86,2 -14.07,-28.4 -4.18,-15.4 -18.67,-26.7 -6.83,3.4 -16.67,0.5 -18.14,9.3 -2.94,-7.7 1.12,-12.9 -6.45,-4.2 -0.11,-3.8 1.61,-7 -5.13,-7 -1.2,-13.3 -23.56,-10.6 -4.58,-2 z"
       id="Vega de Pas"
       style="fill:#255957;fill-opacity:1;stroke:#000000;stroke-width:2.99999998;stroke-linecap:round;stroke-miterlimit:4;stroke-opacity:1;stroke-dasharray:none">
      <title
         id="title39">Vega de Pas</title>
    </path>
    <path
       d="m -796166.12,4441712.9 -2.56,12 -21.61,16.2 -4.2,2.6 -19.85,-4.6 0,0 -7.44,-2.2 -3.25,6.1 -62.46,22.9 -22.95,14.8 5.51,6.3 -2.23,4.8 -2.55,6.4 8.57,40.9 -0.8,13.2 6.2,13.3 1.76,14.1 -4.27,21.3 -10.63,13.1 -1.05,8.9 -12.93,7.9 4.02,5.6 -0.69,22.9 13.17,9.8 8.69,1.6 4.09,6.1 4.78,-2.4 29.24,7.4 5.11,7.3 15.07,7.8 7.48,13 45.81,13.7 11.72,10.6 -0.91,7.5 5.36,-3 14.6,-0.3 3.58,3.6 6.1,-2.7 10.22,9.5 3.86,0.2 4.49,0.4 3.51,-4.7 -1.32,-16.1 12.89,-7.6 15.51,-17 0,-10.1 3.98,-2.1 -25.48,-16.7 -8.39,-14 -0.15,-7 6.86,-10.1 4.6,4.5 16.32,4.5 -11.83,-14.1 -13.5,-4.3 -21.21,-13.5 -4.67,-9.7 -7.59,-4.2 -3.8,-12.6 4.93,-9.6 -13.62,-12.1 -4.92,-10.2 -2.96,-23.6 4.96,-18.9 -5.47,-24.6 6.64,-12.7 0,-8.5 13.69,-12.8 -3.76,-18 2.7,-4.8 5.59,4.8 7.92,-2 1.78,8.3 6.06,0.8 1.61,-7 -5.11,-7 -1.21,-13.3 -23.57,-10.6 z"
       id="Luena"
       style="fill:#255957;fill-opacity:1;stroke:#000000;stroke-width:2.99999998;stroke-linecap:round;stroke-miterlimit:4;stroke-opacity:1;stroke-dasharray:none">
      <title
         id="title40">Luena</title>
    </path>
    <path
       d="m -796159.19,4441738.9 -2.7,4.8 3.76,18 -13.69,12.8 0,8.5 -6.64,12.7 5.47,24.6 -4.96,18.9 2.96,23.6 4.92,10.2 13.62,12.1 -4.93,9.6 3.8,12.6 7.59,4.2 4.67,9.7 21.21,13.5 13.5,4.3 11.83,14.1 15.95,-0.2 10.04,-1 10.4,-11.1 8.43,-1.9 6.97,7.3 9.27,0.6 20.66,11.8 20.08,-5.5 4.53,-4.7 14.71,5.2 12.55,-7.5 6.35,-3.5 -5,-16.5 6.83,-16.2 -13.4,0.1 -27.01,-11 -7.77,-12 -0.11,-7.5 -23.51,-36.5 -10.22,-8.3 -11.86,2 -14.09,-28.4 -4.16,-15.4 -18.69,-26.7 -6.83,3.4 -16.64,0.5 -18.14,9.3 -2.96,-7.7 1.13,-12.9 -6.46,-4.3 -0.11,-3.7 -6.06,-0.8 -1.79,-8.3 -7.92,2 -5.58,-4.8 z"
       id="San Pedro del Romeral"
       style="fill:#255957;fill-opacity:1;stroke:#000000;stroke-width:2.99999998;stroke-linecap:round;stroke-miterlimit:4;stroke-opacity:1;stroke-dasharray:none">
      <title
         id="title41">San Pedro del Romeral</title>
    </path>
    <path
       d="m -796431.78,4441096.2 2.92,4.4 -8.03,6.4 2.19,3.6 -2.3,3.8 -17.41,1.2 5.19,8.4 -7.3,3.8 2.4,11.6 15.66,15.7 -15.62,21 6.24,6.6 27.78,13.3 -6.17,11 4.93,1.3 2.88,-3.8 7.41,-0.8 5.55,3.2 1.46,6.4 3.65,3.3 10.44,-4.6 19.38,-0.6 15.81,-11.9 0.62,-11.8 36.57,-20.9 2.52,-15.1 -9.67,-22.6 7.48,-2.4 -10.11,-16.1 -7.52,8.4 -13.8,-8.6 -5.4,8.9 -8.21,2.6 0.91,-8 0.4,-4.5 -9.09,-6.1 -21.75,14.7 -6.75,-0.8 -2.12,-6.1 -17.41,-12.5 -13.73,-2.4 z"
       id="Miengo"
       style="fill:#d7f4d7;fill-opacity:1;stroke:#000000;stroke-width:2.99999998;stroke-linecap:round;stroke-miterlimit:4;stroke-opacity:1;stroke-dasharray:none">
      <title
         id="title42">Miengo</title>
    </path>
    <path
       d="m -796568.35,4441148.1 6.71,-3.8 -1.91,-3.7 3.78,-7.7 6.28,-0.9 14.59,-11.1 -1.02,9.9 8.07,6.8 40.19,-6.5 4.13,-6.8 6.31,-0.6 4.39,-6.1 -4.66,-6.4 5.33,-6.4 7.3,7.6 -3.03,11.4 11.34,2.9 1.13,9.2 3.25,8.8 8.45,6.7 5.43,-0.1 3.84,3.8 -15.62,21.1 6.22,6.5 27.79,13.3 -6.18,11 -17.64,9.3 -2.85,13.3 -8.91,8.1 -13.2,-0.1 -3.49,10.2 -4.04,1.9 -29.89,-27.8 -26.71,-3.8 -19.25,-21.7 -12.08,-3 10.79,-15.7 -5.13,-17.3 -9.71,-12.3 z"
       id="Suances"
       sodipodi:nodetypes="ccccccccccccccccccccccccccccccccccccccc"
       style="fill:#d7f4d7;fill-opacity:1;stroke:#000000;stroke-width:2.99999998;stroke-linecap:round;stroke-miterlimit:4;stroke-opacity:1;stroke-dasharray:none">
      <title
         id="title43">Suances</title>
    </path>
    <path
       d="m -796632.63,4441177 32.1,-7.9 17.82,-9.4 1.31,-4.8 7.54,-5.1 4.1,2.4 1.41,-4.1 9.71,12.3 5.13,17.3 -10.79,15.7 12.08,3 19.25,21.7 26.71,3.8 29.89,27.8 4.04,-1.9 -0.39,4.2 -10.53,21.8 -0.17,13.4 4.37,10.1 -7.11,-1.5 -11.62,-14.3 -15.56,1.6 -5.42,9.3 -9.12,5.9 -12.22,-3.6 -14.16,-21.5 -13.1,13.3 -25.35,-17.4 -58.62,-11.5 31.36,-27.6 -10.06,-34.1 -0.22,-15.9 -2.38,-3 z"
       id="Santillana del Mar"
       style="fill:#d7f4d7;fill-opacity:1;stroke:#000000;stroke-width:2.99999998;stroke-linecap:round;stroke-miterlimit:4;stroke-opacity:1;stroke-dasharray:none">
      <title
         id="title44">Santillana del Mar</title>
    </path>
    <path
       d="m -796791.1,4441220.2 5.98,-0.2 19.39,-13.4 12.85,5.3 12.32,-7.4 20.96,-3.2 3.51,-4.1 10.39,10.3 28.7,-19.1 4.82,2.4 4.72,-6.9 29.5,-5.4 -1.3,4.2 5.1,0.8 3.91,-3.5 0.22,15.9 10.06,34.1 -31.36,27.6 -13.29,12 25.74,18.8 0,7.7 -4.11,4.1 -0.57,-7.7 -6.96,-2 -16.34,22 8.39,6.9 -5.53,9.3 -11.67,1.6 -6.15,-2.8 -8.93,1.2 -5.56,11.1 -23.63,6 -22.83,-20.4 -18.45,9.5 -20.45,-0.2 -2.23,-14.5 -25.29,-8.1 -4.8,-4.9 -33.92,6.7 -19.6,-21.6 13.64,8.5 8.26,0.1 20.79,-7.7 8.59,4.2 10.55,-14 -1.34,-10.9 4.06,-11.8 10.14,-12.1 1,-3.6 -4.3,-3 6.97,-10.2 -1.9,-11.6 z"
       id="Alfoz de Lloredo"
       style="fill:#1a6dea;fill-opacity:1;stroke:#000000;stroke-width:2.99999998;stroke-linecap:round;stroke-miterlimit:4;stroke-opacity:1;stroke-dasharray:none">
      <title
         id="title45">Alfoz de Lloredo</title>
    </path>
    <path
       d="m -796403.99,4441213.3 -17.24,9.3 4.15,11 13.25,4.1 24.57,21.9 0.85,10 -2.23,10.7 -9.31,14.6 -17.6,18.6 -8.87,-5.2 -20.33,2.6 -7.24,-4.9 -3.36,-4.5 -0.11,-16.1 -14.44,-24.8 -10.82,-8.6 0.39,-4.2 3.49,-10.2 13.2,0.1 8.91,-8.1 2.85,-13.3 17.64,-9.3 4.94,1.3 2.89,-3.8 7.39,-0.8 5.56,3.2 1.47,6.4 z"
       id="Polanco"
       style="fill:#d7f4d7;fill-opacity:1;stroke:#000000;stroke-width:2.99999998;stroke-linecap:round;stroke-miterlimit:4;stroke-opacity:1;stroke-dasharray:none">
      <title
         id="title46">Polanco</title>
    </path>
    <path
       d="m -796527.88,4441298.3 9.12,-5.9 5.42,-9.3 15.56,-1.6 11.62,14.3 7.11,1.5 -4.37,-10.1 0.17,-13.4 10.53,-21.8 10.82,8.6 14.44,24.8 0.11,16.1 3.36,4.5 7.24,4.9 20.33,-2.6 8.87,5.2 -10.15,53 14.07,3.9 6.01,24.2 -6.1,20.8 -13.85,18 -11.71,-2.4 -96.79,11.2 15.94,-43.1 -3.7,-9.2 5.75,-12.7 7.1,-3.2 2.58,-6.8 -6.67,-6.7 -9.8,-24.8 -11.33,6.8 -10.47,0.1 -3.16,-9.2 11.95,-35.1 z"
       id="Torrelavega"
       style="fill:#808080;fill-opacity:1;stroke:#000000;stroke-width:2.99999998;stroke-linecap:round;stroke-miterlimit:4;stroke-opacity:1;stroke-dasharray:none">
      <title
         id="title47">Torrelavega</title>
    </path>
    <path
       d="m -796651.33,4441257.6 58.62,11.5 25.35,17.4 13.1,-13.3 14.16,21.5 12.22,3.6 -11.95,35.1 3.16,9.2 -15.23,22.2 -8.87,7.2 -25.27,5.8 -10.42,7.9 -7.81,-5.6 -1.92,-12.2 -14.88,5.6 -19.63,-4.7 -3.77,7.7 -10.95,9.3 -22.94,7.1 -10.71,-7.9 -16.02,2.3 1,-32.1 7.11,-5.6 0.62,-9.8 5.56,-11.1 8.94,-1.2 6.14,2.8 11.67,-1.6 5.54,-9.3 -8.4,-6.9 16.34,-22 6.96,2 0.57,7.7 4.11,-4.1 0,-7.7 -25.74,-18.8 13.29,-12 z"
       id="Reocín"
       style="fill:#d7f4d7;fill-opacity:1;stroke:#000000;stroke-width:2.99999998;stroke-linecap:round;stroke-miterlimit:4;stroke-opacity:1;stroke-dasharray:none">
      <title
         id="title48">Reocín</title>
    </path>
    <path
       d="m -796696.36,4441339.8 -0.62,9.8 -7.11,5.6 -1,32.1 -13.33,1 -10.49,5.2 -8.9,-2.1 -6.76,4.8 -15.91,2.6 4.82,8.4 -18.98,32.7 -14.68,12.7 -11.46,3.8 -21.29,38.6 -6.8,-1 -5.07,3 -5.66,-5.5 -10.68,6.3 -33.54,2.8 -0.68,-18.8 -14.99,-6.5 -2.45,-9.9 3.01,-3.4 -1.49,-5.9 15.11,-6.4 -0.77,-8.5 -5.2,-7.8 0.48,-10.1 10.85,-10.3 4.72,-15.9 4.1,-5 7.5,-1.5 8.41,1.2 13,9.1 43.31,-9.4 5.08,-3.9 -0.47,-8.4 7.83,-8.9 -5.19,-16 9.94,-19.6 20.46,0.2 18.44,-9.5 22.83,20.4 23.63,-6 z"
       id="Cabezon de la Sal"
       style="fill:#1a6dea;fill-opacity:1;stroke:#000000;stroke-width:2.99999998;stroke-linecap:round;stroke-miterlimit:4;stroke-opacity:1;stroke-dasharray:none">
      <title
         id="title49">Cabezón de la Sal</title>
    </path>
    <path
       d="m -796596.46,4441385.7 10.42,-7.9 25.27,-5.8 8.87,-7.2 15.23,-22.2 10.47,-0.1 11.33,-6.8 9.8,24.8 6.67,6.7 -2.58,6.8 -7.1,3.2 -5.75,12.7 3.7,9.2 -15.94,43.1 -60.77,19.1 -19.4,-5.4 -13.61,2.1 -5.4,-12.5 1.53,-9.9 14.01,-17.2 5.78,-18.6 6.96,-5.7 0.51,-8.4 z"
       id="Cartes"
       style="fill:#d7f4d7;fill-opacity:1;stroke:#000000;stroke-width:2.99999998;stroke-linecap:round;stroke-miterlimit:4;stroke-opacity:1;stroke-dasharray:none">
      <title
         id="title50">Cartes</title>
    </path>
    <path
       d="m -796705.09,4441387.3 16.02,-2.3 10.71,7.9 22.94,-7.1 10.95,-9.3 3.77,-7.7 19.63,4.7 14.88,-5.6 1.92,12.2 7.81,5.6 -0.51,8.4 -6.96,5.7 -5.78,18.6 -14.01,17.2 -1.53,9.9 5.4,12.5 -21.93,6.3 -16.16,27.3 9.07,33.8 -8.37,23 -10.19,0.5 -3.64,7.4 -6.97,2.4 -37.05,8.2 -23.19,-11.4 -24.65,-5.7 -6.66,-17.3 -14.54,-21.6 -14.52,-6.8 -24.75,1.6 -10.54,-8.7 5.07,-3 6.8,1 21.29,-38.6 11.46,-3.8 14.68,-12.7 18.98,-32.7 -4.82,-8.4 15.91,-2.6 6.76,-4.8 8.9,2.1 10.49,-5.2 13.33,-1 z"
       id="Mazcuerras"
       style="fill:#1a6dea;fill-opacity:1;stroke:#000000;stroke-width:2.99999998;stroke-linecap:round;stroke-miterlimit:4;stroke-opacity:1;stroke-dasharray:none">
      <title
         id="title51">Mazcuerras</title>
    </path>
    <path
       d="m -796526.07,4441442.2 96.79,-11.2 11.71,2.4 20.71,33.6 -3.67,9.7 7.18,19.8 0.95,17.3 -7.36,31.4 9.86,14.6 -2.14,6.9 5.59,7 -10.52,25 -6.79,10.7 -20.04,-2 -4.15,4.7 -16.76,-28.9 -40.43,-24.5 -9.96,-19.5 -6.95,-24.8 -8.66,-14.2 -6.09,-22.8 -12.69,-13.1 -1.3,-4.6 8.5,-10.1 -3.78,-7.4 z"
       id="San Felices de Buelna"
       style="fill:#d7f4d7;fill-opacity:1;stroke:#000000;stroke-width:2.99999998;stroke-linecap:round;stroke-miterlimit:4;stroke-opacity:1;stroke-dasharray:none">
      <title
         id="title52">San Felices de Buelna</title>
    </path>
    <path
       d="m -796619.85,4441458 13.61,-2.1 19.4,5.4 60.77,-19.1 3.78,7.4 -8.5,10.1 1.3,4.6 12.69,13.1 6.09,22.8 8.66,14.2 6.95,24.8 9.96,19.5 40.43,24.5 16.76,28.9 -13,16.5 -13.57,-1.9 -21.17,-9.3 -5.12,-7.3 -23.97,-3.5 -7.77,1.8 -10.37,-7.4 4.1,-6.9 -3.75,-6.8 -34.55,-3.6 -12.06,-9.7 -9.28,-3.1 -7.88,8.3 -18.01,-2.2 -7.08,-10 -45.81,-18.6 8.37,-23 -9.07,-33.8 16.16,-27.3 21.93,-6.3 z"
       id="Los Corrales de Buelna"
       style="fill:#d7f4d7;fill-opacity:1;stroke:#000000;stroke-width:2.99999998;stroke-linecap:round;stroke-miterlimit:4;stroke-opacity:1;stroke-dasharray:none">
      <title
         id="title53">Los Corrales de Buelna</title>
    </path>
    <path
       d="m -796883.82,4441500.6 33.54,-2.8 10.68,-6.3 5.66,5.5 10.54,8.7 24.75,-1.6 14.52,6.8 14.54,21.6 6.66,17.3 24.65,5.7 23.19,11.4 4.98,42.1 -6.4,9.6 1.9,17.4 -10.45,27.7 5.59,6.8 -8.14,23.8 -11.77,1.6 -2.67,-15.4 -5.53,-3 -23.67,2.1 -11.75,-8.1 -34.38,-2.3 -2.58,-3.2 -15.08,5.9 -12.21,-5.6 -5.94,2.9 -23.44,-3.4 -14.28,-6.9 -2.03,-4.9 4.38,-8.8 -6.88,-32.1 -12.66,-24.3 -4.03,-1 -2.38,-15.5 10.3,-27.6 -8.59,-2.4 -13.45,-11.5 -12.44,0.7 -9.13,-7 -24.61,-1.2 0,-16.4 88.64,-6.3 z"
       id="Ruente"
       style="fill:#1a6dea;fill-opacity:1;stroke:#000000;stroke-width:2.99999998;stroke-linecap:round;stroke-miterlimit:4;stroke-opacity:1;stroke-dasharray:none">
      <title
         id="title54">Ruente</title>
    </path>
    <path
       d="m -797051.06,4441511.8 4.83,-5.8 33.34,1.6 21.92,-5.6 18.5,4.9 0,16.4 24.61,1.2 9.14,7 12.44,-0.7 13.44,11.5 8.6,2.4 -10.3,27.6 2.38,15.5 4.03,1 12.66,24.3 6.88,32.1 -4.38,8.8 2.02,4.9 14.29,6.9 23.44,3.4 5.93,-2.9 12.22,5.6 15.08,-5.9 2.58,3.2 34.37,2.3 11.75,8.1 23.68,-2.1 5.52,3 2.68,15.4 -12.65,14.4 -5.48,12.1 -27.55,-1.1 -11.4,-3.5 -5.05,12.7 -19.25,11.4 -18.05,-10.1 -47.91,-5.4 -8.59,-6.5 -14.73,27.3 -21.84,5.3 -4.44,17.1 -11.23,15.2 -4.28,16.5 -34.82,15.6 -8.55,-0.9 -2.7,-26.8 5.26,-5.9 2.06,-10.2 -7.32,-22.5 5.42,-13.9 9.18,-8.5 -5.47,-16.3 4.31,-11.4 -4.07,-22.6 2.45,-5.5 -12.33,-29.4 -7.63,-9.8 -1.59,-10.3 -25.59,-13.2 -6.26,-9.7 -11.26,-1.5 -10.49,-6.1 -6.18,1.3 -8.05,-6.3 8.33,-17.9 -8.45,-5 0.23,-16.9 29.89,-26.1 0.63,-4.3 -6.24,-5.4 z"
       id="Cabuerniga"
       style="fill:#1a6dea;fill-opacity:1;stroke:#000000;stroke-width:2.99999998;stroke-linecap:round;stroke-miterlimit:4;stroke-opacity:1;stroke-dasharray:none">
      <title
         id="title55">Cabuérniga</title>
    </path>
    <path
       d="m -796715.09,4441566.9 37.05,-8.2 6.97,-2.4 3.64,-7.4 10.19,-0.5 45.81,18.6 7.08,10 18.01,2.2 7.88,-8.3 9.28,3.1 12.06,9.7 34.55,3.6 3.75,6.8 -4.1,6.9 10.37,7.4 0.32,12.1 -6.59,3.6 5.68,2.3 -6.26,11.4 7.31,8.1 -11.13,8.8 -22.57,-3 -14.59,15.5 -10.01,-3.3 -45.19,17 -46.02,-19.8 -13.55,17.9 -17.47,4.8 -0.6,4.3 -7.42,-3.2 -26.97,9.4 8.14,-23.8 -5.59,-6.8 10.45,-27.7 -1.9,-17.4 6.4,-9.6 -4.98,-42.1 z"
       id="Cieza"
       style="fill:#2c1aea;fill-opacity:1;stroke:#000000;stroke-width:2.99999998;stroke-linecap:round;stroke-miterlimit:4;stroke-opacity:1;stroke-dasharray:none">
      <title
         id="title56">Cieza</title>
    </path>
    <path
       d="m -796396.97,4441598.7 21.7,21.7 17.12,41.1 4.75,21.3 -3.13,2.3 4.82,37.2 -9.52,4.8 -49.64,10.8 -33.51,-45.5 -6.81,-31.2 4.96,-8.4 5.28,-24.2 13,-16.5 4.15,-4.7 20.04,2 6.79,-10.7 z"
       id="Anievas"
       style="fill:#2c1aea;fill-opacity:1;stroke:#000000;stroke-width:2.99999998;stroke-linecap:round;stroke-miterlimit:4;stroke-opacity:1;stroke-dasharray:none">
      <title
         id="title57">Anievas</title>
    </path>
    <path
       d="m -796512.55,4441608.4 7.77,-1.8 23.97,3.5 5.12,7.3 21.17,9.3 13.57,1.9 -5.28,24.2 -4.96,8.4 6.81,31.2 33.51,45.5 49.64,-10.8 9.52,-4.8 5.81,7.1 6.74,2.5 6.3,10.5 22.15,11.5 0.16,26.8 5.54,6.3 -2.26,4.8 -21.92,-17.5 -35.47,-7.7 -49.75,-24.8 -30.73,-1.1 -25.64,4.9 -19.41,-8.3 -9.67,0.1 -30.31,17.9 -11.39,3.1 1.57,12 -6.7,1.3 -6.72,29.3 -11.26,3 -8.24,9.1 -23.03,3 -8.42,26.5 -9.2,6.1 -3.97,7.4 -49.94,-22.1 -9,-6.6 -6.42,-13.3 -10.27,-5.6 10.05,-22.2 -2.78,-13.6 3.51,-8.6 -25.11,-19.8 -4.08,-11.8 -8.25,-10.1 -0.31,-12.6 -7.78,-11 0.3,-4.5 26.97,-9.4 7.42,3.2 0.6,-4.3 17.47,-4.8 13.55,-17.9 46.02,19.8 45.19,-17 10.01,3.3 14.59,-15.5 22.57,3 11.13,-8.8 -7.31,-8.1 6.26,-11.4 -5.68,-2.3 6.59,-3.6 -0.32,-12.1 z"
       id="Arenas de Iguña"
       style="fill:#2c1aea;fill-opacity:1;stroke:#000000;stroke-width:2.99999998;stroke-linecap:round;stroke-miterlimit:4;stroke-opacity:1;stroke-dasharray:none">
      <title
         id="title58">Arenas de Iguña</title>
    </path>
    <path
       d="m -796739.38,4441695.9 11.77,-1.6 -0.3,4.5 7.78,11 0.31,12.6 8.25,10.1 4.08,11.8 25.11,19.8 -3.51,8.6 2.78,13.6 -10.05,22.2 10.27,5.6 6.42,13.3 9,6.6 49.94,22.1 -11.28,15 -56.7,34.6 -38.28,12.3 -32.49,2.8 -17.41,-13.8 -27.73,3.3 -7.41,-9.9 -0.45,-11.3 -8.9,-6.3 -6.09,-9.9 -7.61,-2.4 -19.51,-30.9 -8.79,-7.1 -33.49,3 -29.63,19.6 -2.99,-4.9 0.94,-11.2 -7.88,-20.6 -11.97,-16.8 -6.63,-0.3 4.29,-16.5 11.22,-15.2 4.44,-17.1 21.84,-5.3 14.73,-27.3 8.6,6.5 47.9,5.4 18.06,10.1 19.25,-11.4 5.04,-12.7 11.4,3.5 27.56,1.1 5.47,-12.1 12.65,-14.4 z"
       id="Los Tojos"
       style="fill:#1a6dea;fill-opacity:1;stroke:#000000;stroke-width:2.99999998;stroke-linecap:round;stroke-miterlimit:4;stroke-opacity:1;stroke-dasharray:none">
      <title
         id="title59">Los Tojos</title>
    </path>
    <path
       d="m -796572.91,4441813.1 3.47,3 14.51,-4.2 20.86,16.1 11.82,15.2 15.61,3.9 3.67,-3.4 3.05,-14.6 5.95,-2.6 13.54,10.2 2.2,13.4 19.87,16.2 10.36,3.5 -1.82,7.1 11.09,8.9 22.43,8.2 3.06,9.7 3.81,0.4 0.22,8.3 -12.52,11.6 -44.41,8.1 -13.4,-5.5 -12.22,-15.2 -20.76,-7.8 6.14,-19.5 1.81,-23.8 -47.69,41.4 -2.63,11.9 -77.95,-13.2 -0.93,-21 4.96,-8.3 11.28,-15 3.97,-7.4 9.2,-6.1 8.42,-26.5 23.03,-3 z"
       id="Barcena de Pie de Concha"
       style="fill:#2c1aea;fill-opacity:1;stroke:#000000;stroke-width:2.99999998;stroke-linecap:round;stroke-miterlimit:4;stroke-opacity:1;stroke-dasharray:none">
      <title
         id="title60">Bárcena de Pie de Concha</title>
    </path>
    <g
       id="g3024"
       style="fill:#d7f4d7;fill-opacity:1;stroke:#000000;stroke-width:2.56844497"
       transform="matrix(1.1680219,0,0,1.1680219,133856.4,-746384.74)">
      <path
         d="m -796358.07,4441848.7 -2.19,5.5 7.36,35 -0.69,11.3 5.32,11.4 1.5,12 -3.66,18.3 -9.1,11.2 -0.89,7.6 -11.06,6.8 -19.97,-7 -8.84,-10.5 -10.57,-2.8 -21.56,-4 -12.93,8.4 -0.19,-7.1 -3.26,-0.3 -2.62,-8.3 -19.2,-7 -9.5,-7.7 1.56,-6 -8.87,-3 -17.01,-13.9 -1.88,-11.5 -11.6,-8.7 -5.09,2.2 -2.61,12.5 -3.14,2.9 -13.37,-3.3 -10.12,-13 -17.86,-13.8 -12.42,3.6 -2.97,-2.6 7.05,-7.8 9.64,-2.5 5.76,-25.1 5.73,-1.1 -1.34,-10.3 9.75,-2.7 25.95,-15.3 8.28,-0.1 16.62,7.1 21.95,-4.2 26.31,1 42.59,21.2 30.37,6.6 18.77,15 z"
         id="Molledo1"
         style="fill:#2c1aea;fill-opacity:1;stroke:#000000;stroke-width:2.56844497;stroke-linecap:round;stroke-miterlimit:4;stroke-opacity:1;stroke-dasharray:none">
        <title
           id="title61">Molledo</title>
      </path>
      <path
         d="m -796570.07,4441953 2.25,-10.2 40.83,-35.5 -1.55,20.4 -5.26,16.7 -36.27,8.6 z"
         id="Molledo"
         style="fill:#2c1aea;fill-opacity:1;stroke:#000000;stroke-width:2.56844497;stroke-linecap:round;stroke-miterlimit:4;stroke-opacity:1;stroke-dasharray:none">
        <title
           id="title62">Molledo</title>
      </path>
    </g>
    <path
       d="m -797164.35,4441225.4 -1.67,-6.6 35.81,-4.1 27.57,3.6 -1.4,5.6 8.92,-2.3 6.97,6.1 5.89,-6.8 -2.52,8 12.72,3 17.24,-4.2 23.57,-16.5 3.17,-6.8 25.08,-8.7 3.83,1.8 -2.16,2.9 4,20.6 7.85,7.2 -6.14,21.5 -6.32,4.7 -8.77,-1.4 0.19,7.4 -9.11,5.3 0.12,5.1 8,0.5 5.21,19.4 -11.23,1.7 -1.7,-6.6 -9.2,3.5 -39.63,-3.1 -3.38,2.8 1.79,10 -11.17,9.6 -1.24,5.8 -0.66,6.7 8.99,9.5 -7.27,3.2 -0.26,9.4 4.2,4.8 -1.73,14.8 -27.58,6.3 -9.88,-6.2 -10.64,3.6 -10.93,4.2 2.18,19.6 -14.44,3.5 -8.95,1.8 -3.5,-10.8 -16.57,-16.3 -14.13,-8.1 0.72,-7.5 22.29,-8.7 3.9,-5.2 7.8,-11.5 1.72,-24.7 10.16,-7.7 -2.38,-18.4 -4.76,-0.6 -1.12,-3.4 4.45,-7.9 -16.46,-6.5 1.02,-14.5 -6.55,-10.1 7.97,-4.5 0.13,-3.8 z"
       id="San Vicente"
       style="fill:#1a6dea;fill-opacity:1;stroke:#000000;stroke-width:2.99999998;stroke-linecap:round;stroke-miterlimit:4;stroke-opacity:1;stroke-dasharray:none">
      <title
         id="title63">San Vicente de la Barquera</title>
    </path>
    <path
       d="m -797279.54,4441215.5 -30.11,10.1 -1.43,8.5 4.42,20.9 -19.2,20.8 -2.92,7.1 3.69,5.7 -24.2,-5 -1.65,8.4 8.14,13.8 -7.81,0.6 -6.53,7.1 7.99,4.8 0.18,5.1 -5.69,10.2 -0.15,8.3 25.96,12 1.16,5.4 22.05,-0.2 7.59,-5.4 12.3,-1.1 1.61,3.9 18.65,4.4 50.96,8.2 6.35,-6.8 14.93,-2 0.73,-7.4 22.3,-8.7 3.9,-5.2 7.78,-11.5 1.71,-24.7 10.19,-7.7 -2.38,-18.4 -4.78,-0.6 -1.09,-3.4 4.45,-7.9 -16.46,-6.5 0.98,-14.5 -6.53,-10.1 7.99,-4.5 0.11,-3.8 -9.19,-8.4 -4.86,4 -7.74,-5.5 -4.45,5.8 -3.65,-2.5 -4.6,1.7 -0.33,4 -5.29,-2.1 -0.51,5.8 -9.6,-4.1 -0.11,5.9 -8.91,-2.9 -12.7,6.1 2.48,4.9 -7,9.6 1.16,13.7 -8.17,1.5 -0.88,-9.1 4.38,-13.1 3.36,-6.1 2.63,-11.5 -13.36,-2.1 -3.43,3 -0.95,-5 -3.87,1.5 0.69,5.3 -4.27,0.6 -6.68,-3.1 -0.73,-6.6 -8.61,-1.2 z"
       id="Val de San Vicente"
       style="fill:#1a6dea;fill-opacity:1;stroke:#000000;stroke-width:2.99999998;stroke-linecap:round;stroke-miterlimit:4;stroke-opacity:1;stroke-dasharray:none">
      <title
         id="title64">Val de San Vicente</title>
    </path>
    <path
       d="m -796791.1,4441220.2 1.91,11.6 -6.97,10.2 4.29,3 -1,3.6 -10.14,12.1 -4.05,11.8 1.33,10.9 -10.55,14 -8.58,-4.2 -20.79,7.7 -8.26,-0.1 -13.64,-8.5 -5.14,1.6 -9.91,-6.9 -2.03,-9.3 -10.19,-12.7 -1.13,-25.4 4.57,-4.5 9.04,-0.9 2,-8.9 6.72,-0.2 6.26,4.8 -0.7,-5.4 5.47,-4.5 11.81,-3.2 13.21,2.5 26.97,-10.6 9.9,0.4 7.65,4.7 1.95,6.4 z"
       id="Ruiloba"
       style="fill:#1a6dea;fill-opacity:1;stroke:#000000;stroke-width:2.99999998;stroke-linecap:round;stroke-miterlimit:4;stroke-opacity:1;stroke-dasharray:none">
      <title
         id="title65">Ruiloba</title>
    </path>
    <path
       d="m -796965.9,4441234.3 2.63,-3.5 7.78,-1.2 3.14,4.3 2.89,-5.2 5.89,-1.6 3.18,5 6.47,-2.8 13.76,1.8 2.28,-8.2 8.24,1 -1.11,7.4 14.8,8.3 1.13,25.4 10.19,12.7 2.03,9.3 9.91,6.9 5.14,-1.6 19.59,21.6 -20.48,7.3 -18.94,-1.3 5.9,18.3 -20.61,4.7 -10.21,7.5 -6.05,-3.4 -8.19,3.1 -17.84,-12.9 -2.41,-9.6 -14.77,-11.3 -4.17,-10.5 5.39,-10.5 0.4,-9.5 13.84,-4.9 -0.13,-3.7 -5.82,-7.4 -5.59,-0.3 -3.3,-7.3 0.12,-15.5 -5.36,-2.3 2.77,-7.2 -2.49,-2.9 z"
       id="Comillas"
       style="fill:#1a6dea;fill-opacity:1;stroke:#000000;stroke-width:2.99999998;stroke-linecap:round;stroke-miterlimit:4;stroke-opacity:1;stroke-dasharray:none">
      <title
         id="title66">Comillas</title>
    </path>
    <path
       d="m -796989.48,4441228.2 15.74,6.6 7.84,-0.5 2.49,2.9 -2.77,7.2 5.36,2.3 -0.12,15.5 3.3,7.3 5.59,0.3 5.82,7.4 0.13,3.7 -13.84,4.9 -0.4,9.5 -5.39,10.5 4.17,10.5 14.77,11.3 2.41,9.6 17.84,12.9 1.55,4.8 7.3,3.2 -2.18,8.7 13.16,2 -1.21,11.9 9.85,9.1 22.84,7.3 -4.72,15.9 -10.85,10.3 -0.48,10.1 5.2,7.8 0.77,8.5 -15.11,6.4 1.49,5.9 -3.01,3.4 2.45,9.9 14.99,6.5 0.68,18.8 -88.65,6.3 -18.5,-4.9 -21.92,5.6 -33.34,-1.6 -4.83,5.8 -12.4,4.6 -13.91,-5 -8.27,-8.1 -7.34,-9 -1.15,-15.2 3.61,-14 -3.78,-6.3 -34.61,-18.1 -18.41,-0.9 5.34,-29.5 -8.11,-16.5 14.44,-3.5 -2.18,-19.6 10.93,-4.2 10.64,-3.6 9.88,6.2 27.58,-6.3 1.73,-14.8 -4.2,-4.8 0.26,-9.4 7.26,-3.2 -8.98,-9.5 0.66,-6.7 1.23,-5.8 11.18,-9.6 -1.8,-10 3.39,-2.8 39.63,3.1 9.19,-3.5 1.71,6.6 11.22,-1.7 -5.2,-19.4 -8.01,-0.5 -0.11,-5.1 9.11,-5.3 -0.19,-7.4 8.77,1.4 6.32,-4.7 6.13,-21.5 z"
       id="Valdaliga"
       style="fill:#1a6dea;fill-opacity:1;stroke:#000000;stroke-width:2.99999998;stroke-linecap:round;stroke-miterlimit:4;stroke-opacity:1;stroke-dasharray:none">
      <title
         id="title67">Váldaliga</title>
    </path>
    <path
       d="m -796847.96,4441313.9 33.92,-6.7 4.8,4.9 25.29,8.1 2.23,14.5 -9.94,19.6 5.19,16 -7.83,8.9 0.47,8.4 -5.08,3.9 -43.31,9.4 -13,-9.1 -8.41,-1.2 -7.5,1.5 -4.1,5 -22.84,-7.3 -9.85,-9.1 1.21,-11.9 -13.16,-2 2.18,-8.7 -7.3,-3.2 -1.55,-4.8 8.19,-3.1 6.05,3.4 10.21,-7.5 20.61,-4.7 -5.9,-18.3 18.94,1.3 20.48,-7.3 z"
       id="Udias"
       style="fill:#1a6dea;fill-opacity:1;stroke:#000000;stroke-width:2.99999998;stroke-linecap:round;stroke-miterlimit:4;stroke-opacity:1;stroke-dasharray:none">
      <title
         id="title68">Udías</title>
    </path>
    <path
       d="m -797285.75,4441352.6 -12.3,1.1 -7.59,5.4 -22.05,0.2 -8.35,19 14.19,41.2 0.92,36.9 -5.59,31.1 -3.21,5.8 -16.39,6.6 -5.99,11.9 10.44,-2 4.27,-8.7 11.39,-5.7 2.89,-4.5 20.66,-8.6 21.86,7.4 23.73,-5.9 10.54,-10.8 19.57,-5 8.98,-8.6 8.28,-2.8 25.3,1.4 6.02,-4.9 26.17,-7.5 4.71,-5.8 5.33,-29.5 -8.1,-16.5 -8.98,1.8 -3.47,-10.9 -16.57,-16.2 -14.16,-8.2 -14.93,2 -6.35,6.8 -50.96,-8.2 -18.65,-4.4 -1.61,-3.9 z"
       id="Herrerias"
       style="fill:#1a6dea;fill-opacity:1;stroke:#000000;stroke-width:2.99999998;stroke-linecap:round;stroke-miterlimit:4;stroke-opacity:1;stroke-dasharray:none">
      <title
         id="title69">Herrerías</title>
    </path>
    <path
       d="m -797523.59,4441517.8 -5.56,-0.5 -2.65,-9.1 0.79,-11 8.66,-3 7.96,-9 5.08,-15.6 6.06,1 3.57,-6.1 19.54,-10.8 1.86,-12.4 14.61,4.7 13.32,12.2 16.3,3.9 2.78,4.7 12.58,0.4 6.66,-5.7 25.52,8.8 7.82,8 -3.42,29.6 8.97,7.4 15.85,43.6 8.81,4.8 0.79,21.1 10.49,16.5 7.31,55.1 -2.74,28.7 -19.65,-8.3 -10.61,-8.4 -8.58,-1.3 -13.21,-22.8 -7.54,-5.4 2.5,-13.4 -4.61,-7.2 -33.06,-19.8 -30.73,12.9 0.43,-11.3 -10.36,0.6 -12.82,-14 6.11,-6.3 -41.95,-16.3 -2.15,-7.2 -11.68,-8.7 -7.66,-11.5 4.84,-4.8 -0.45,-6.3 10.22,-7.8 z"
       id="Peñarrubia"
       style="fill:#1a6dea;fill-opacity:1;stroke:#000000;stroke-width:2.99999998;stroke-linecap:round;stroke-miterlimit:4;stroke-opacity:1;stroke-dasharray:none">
      <title
         id="title70">Peñarrubia</title>
    </path>
    <path
       d="m -797256.87,4441483.8 10.54,-10.7 19.57,-5.1 8.97,-8.6 8.29,-2.8 25.28,1.4 6.03,-4.9 26.19,-7.5 4.68,-5.8 18.41,0.9 34.61,18.1 3.78,6.3 -3.61,14 1.15,15.2 7.34,9 8.27,8.1 13.91,5 12.4,-4.6 6.23,5.4 -0.63,4.3 -29.89,26.1 -0.23,16.9 8.46,5 -8.33,17.9 8.05,6.3 6.18,-1.3 10.48,6.1 11.26,1.5 6.27,9.7 25.59,13.2 1.58,10.3 7.63,9.8 -31.1,19.6 -3.55,4.1 3.17,3.8 -15.04,1 -11.77,9.4 -11.19,1.8 -3.54,25.7 -9.12,10.9 -14.77,0.1 -2.63,15.2 -7.26,8.2 0.65,16.2 -24.11,22.5 -1.88,25.3 -17.68,10.4 -25.73,4.3 -21.19,-6.6 -28.8,-16.3 -24.57,-13 -10.68,-11.1 4.75,-14.2 -2.46,-26.2 10.45,-15.5 23.32,-17 19.31,-22.7 -5.09,-7.3 16.85,-34.4 -3.31,-8.2 3.8,-8.6 0,-10.7 -5.61,-6.4 -0.35,-18.9 3.94,-7.4 -5.03,-18.3 -0.74,-24 -12.38,-2.1 -15.78,2.4 0,-4.2 -12.37,-2.6 -3.44,-8.6 3.23,-7.6 -16.77,-28.2 z"
       id="Rionansa"
       style="fill:#1a6dea;fill-opacity:1;stroke:#000000;stroke-width:2.99999998;stroke-linecap:round;stroke-miterlimit:4;stroke-opacity:1;stroke-dasharray:none">
      <title
         id="title71">Rionansa</title>
    </path>
    <path
       d="m -797302.46,4441482.3 -20.66,8.6 -2.89,4.5 -11.39,5.7 -4.27,8.7 -10.44,2 -21.02,3.5 15.84,43.6 8.83,4.8 0.77,21.1 10.51,16.5 7.3,55.1 -2.73,28.6 7.52,28.2 15.58,26.4 10.59,10.3 7.26,2.7 4.31,8.5 14.09,3.4 9.96,9.9 4.13,0.1 4.74,-14.2 -2.48,-26.2 10.47,-15.5 23.33,-17 19.31,-22.7 -5.11,-7.3 16.86,-34.4 -3.32,-8.2 3.79,-8.6 0,-10.7 -5.58,-6.4 -0.36,-18.9 3.94,-7.4 -5.04,-18.3 -0.73,-24 -12.37,-2.1 -15.81,2.3 0,-4.1 -12.34,-2.6 -3.46,-8.7 3.25,-7.5 -16.79,-28.2 -23.73,5.9 -21.86,-7.4 z"
       id="Lamason"
       style="fill:#1a6dea;fill-opacity:1;stroke:#000000;stroke-width:2.99999998;stroke-linecap:round;stroke-miterlimit:4;stroke-opacity:1;stroke-dasharray:none">
      <title
         id="title72">Lamasón</title>
    </path>
    <path
       d="m -797523.59,4441517.8 -10.22,7.8 0.45,6.3 -4.84,4.8 -5.63,5.7 -21.44,5.2 -7.2,12 -11.6,7.1 -6.47,1.4 -19.58,-7.3 -19.12,0.2 -11.87,27.2 -5.66,8.2 -6.85,1.9 -0.98,9.9 -10.26,1.4 -11.21,-6.3 -2.06,-4.3 4.28,-15.2 -8.66,0.1 -13.94,-20.3 -4.3,-21.9 9.37,2.5 4.24,-4.4 20.95,-6.5 9.98,-13.7 2.06,3.7 14.5,-1.3 6.06,4.4 6.28,-5.9 6.64,2.7 5.65,-5.3 9.46,-1 14.93,6.6 18.26,1.5 9.69,-3.1 6.25,-6.8 27.28,2.2 5.56,0.5 z"
       id="Tresviso"
       style="fill:#1ac7ea;fill-opacity:1;stroke:#000000;stroke-width:2.99999998;stroke-linecap:round;stroke-miterlimit:4;stroke-opacity:1;stroke-dasharray:none">
      <title
         id="title73">Tresviso</title>
    </path>
    <path
       d="m -797682.51,4441583.9 8.66,-0.1 -4.28,15.2 2.06,4.3 11.21,6.3 10.26,-1.4 0.98,-9.9 6.85,-1.9 5.66,-8.2 11.87,-27.2 19.12,-0.2 19.58,7.3 6.47,-1.4 11.6,-7.1 7.2,-12 21.44,-5.2 5.63,-5.7 7.66,11.5 11.68,8.7 2.15,7.2 41.95,16.3 -6.11,6.3 12.82,14 10.36,-0.6 -0.43,11.3 30.73,-12.9 33.06,19.8 4.61,7.2 -2.5,13.4 7.54,5.4 13.21,22.8 8.58,1.3 10.61,8.4 19.65,8.3 7.51,28.1 15.61,26.4 -8.63,10.2 -10.35,3 -22.37,-6.1 -27.58,-1.7 -21.13,7.5 -15.42,17.8 -20.4,5.5 -30.3,-2.9 -11.76,4.9 -10.83,-7.7 -3.68,-1.2 2.32,-16.6 -9.44,-13.7 -21.94,4.2 -13.78,-8 -6.76,-0.3 -4.5,-7.7 -16.3,-7.6 -0.32,-9.6 -8.4,-0.8 -2.08,-16 -5.67,-4.1 4.14,-9.6 -18.11,-19.6 -3.74,1.1 -4.81,-5.7 -7.97,0.4 -14.11,-7 -17.46,19 -5.44,8.3 1,3.6 -12.41,-1.1 -7.71,3.2 -13.37,-8.5 -18.49,13.4 -8.07,1.5 -6.06,-11.4 1.51,-22.1 13.85,-18 -6.52,-9.7 3.66,-7.3 14.79,-12.6 1.64,-22.7 z"
       id="Cillorigo de Liebana"
       style="fill:#1ac7ea;fill-opacity:1;stroke:#000000;stroke-width:2.99999998;stroke-linecap:round;stroke-miterlimit:4;stroke-opacity:1;stroke-dasharray:none">
      <title
         id="title74">Cillórigo de Liebana</title>
    </path>
    <path
       d="m -797897.63,4441719.9 7.25,-0.3 10.82,5.3 21.24,-0.8 2.72,-11.8 11.42,6.3 10.17,-1.8 28.31,-7.9 20.92,-15.3 43.97,17.4 13.47,1 13.2,-5.2 8.25,-9.4 0.51,-9.7 8.07,-1.5 18.49,-13.4 13.37,8.5 7.71,-3.2 12.41,1.1 -1,-3.6 5.44,-8.3 17.46,-19 14.11,7 7.97,-0.4 4.81,5.7 3.74,-1.1 18.11,19.6 -4.14,9.6 5.67,4.1 2.08,16 8.4,0.8 0.32,9.6 16.3,7.6 4.5,7.7 6.76,0.3 13.78,8 0.48,9.5 -6.18,14.5 1.85,11.5 -12.25,22.5 -9.72,8.4 -30.47,4.7 -14.51,14.4 -15.35,2.9 -17.18,10 -7.18,16 -13.23,4.9 -13.62,23.5 -7.03,22.3 -18.35,5.2 -4.29,12.1 -15.29,9.1 -7.7,17.1 -16.46,5.8 -4.79,5.9 -32.06,3.9 -12.11,-10.6 -19.98,-10.5 -7.24,-0.8 -14.92,-9 -6.97,0.1 -12.07,-9.4 -16.86,-1.9 -0.77,-8 -7.43,-7.6 -20.24,-7.7 -4.02,-14.1 -1.35,-17.7 -16.88,-12.1 -0.98,-5.5 -10.07,-4.8 15.61,-17.2 -2.07,-29.5 9.4,-2.3 6.19,-20.8 0.71,-5.3 -10.58,-9.7 3.25,-10.1 -23.07,-14.3 4.24,-9.7 14.93,-8.6 z"
       id="Camaleño"
       style="fill:#1ac7ea;fill-opacity:1;stroke:#000000;stroke-width:2.99999998;stroke-linecap:round;stroke-miterlimit:4;stroke-opacity:1;stroke-dasharray:none">
      <title
         id="title75">Camaleño</title>
    </path>
    <path
       d="m -797130.55,4441806.8 1.88,-25.3 24.11,-22.5 -0.65,-16.2 7.26,-8.2 2.63,-15.2 14.77,-0.1 9.12,-10.9 3.54,-25.7 11.19,-1.8 11.77,-9.4 15.04,-1 -3.17,-3.8 3.55,-4.1 31.1,-19.6 12.34,29.4 -2.46,5.5 4.08,22.6 -4.31,11.4 5.47,16.3 -9.18,8.5 -5.42,13.9 7.32,22.5 -2.07,10.2 -5.25,5.9 2.69,26.8 2.98,13.9 6.6,7.8 7.76,2.5 1.31,4.9 -6.93,39.1 4.47,15.2 -22.27,13.1 -10.01,13.8 -22.36,-32 -0.66,-9.2 -16.37,-9.2 -8.21,4.1 -28.95,-48.2 -8.96,2.1 -11.75,-15.9 -22,-11.2 z"
       id="Tudanca"
       style="fill:#1a6dea;fill-opacity:1;stroke:#000000;stroke-width:2.99999998;stroke-linecap:round;stroke-miterlimit:4;stroke-opacity:1;stroke-dasharray:none">
      <title
         id="title76">Tudanca</title>
    </path>
    <path
       d="m -797488.28,4441770.1 -1.67,8.8 4.97,11.3 2.95,42.3 -18.23,-2.3 -5.9,-9.8 -7.66,-0.8 -2.52,-10.5 -11.05,11.1 -15.82,5.4 -3.63,-16.4 9.72,-8.4 12.25,-22.5 -1.85,-11.5 6.18,-14.5 -0.48,-9.5 21.94,-4.2 9.44,13.7 -2.32,16.6 3.68,1.2 z"
       id="Potes"
       style="fill:#1ac7ea;fill-opacity:1;stroke:#000000;stroke-width:2.99999998;stroke-linecap:round;stroke-miterlimit:4;stroke-opacity:1;stroke-dasharray:none">
      <title
         id="title77">Potes</title>
    </path>
    <path
       d="m -797309.51,4441739.6 -8.61,10.2 -10.37,3 -22.37,-6.1 -27.56,-1.7 -21.14,7.5 -15.44,17.8 -20.4,5.5 -30.3,-2.9 -11.75,4.9 -10.84,-7.7 0,0 -1.67,8.7 4.96,11.4 2.96,42.3 1.31,13.3 5.69,4.2 4.31,16.3 -5.33,7.8 7.7,27.3 -1.49,27.9 16.79,23.6 10.77,-0.6 33.69,-33.5 -10.41,-29.7 9.05,-0.8 3.62,6.8 16.64,-5.5 35.77,10.1 15.15,22.2 13.65,5.2 20.81,-0.4 9.09,-5.8 9.12,1.1 6.02,-6 5.66,1.4 4.86,6.2 16.93,-7.6 5.55,-7.3 11.13,-3.1 6.9,-15.9 0.11,-13.7 -14.71,-3 -15.29,-19.2 4.41,-10.2 9.24,-4.5 2.37,-17.5 7.37,1 4.64,-5.9 1.5,-10.2 5.51,-7.9 -24.57,-13 -10.69,-11.1 -4.09,-0.1 -10,-9.9 -14.05,-3.4 -4.31,-8.5 -7.26,-2.7 -10.59,-10.3 z"
       id="Cabezon de Liebana"
       sodipodi:nodetypes="ccccccccccccccccccccccccccccccccccccccccccccccccccccccccccc"
       style="fill:#1ac7ea;fill-opacity:1;stroke:#000000;stroke-width:2.99999998;stroke-linecap:round;stroke-miterlimit:4;stroke-opacity:1;stroke-dasharray:none">
      <title
         id="title78">Cabezón de Liébana</title>
    </path>
    <path
       d="m -797130.55,4441806.8 22,11.2 11.75,15.9 8.96,-2.1 28.95,48.2 8.21,-4.1 16.37,9.2 0.66,9.2 22.36,32 -14.54,13.2 5.18,19.7 -6.01,32.1 1.53,30.7 -17.04,9.3 -16.09,-6.6 -10.22,4.8 -4.89,-2.7 -16.66,0.7 -4.51,5.9 -14.77,5.1 -6.67,13.2 -17.83,-9 -15.16,-1.7 -16.87,-6.8 -18.98,-23.8 -9.08,-6.1 -16.48,3.4 -7.69,-8.6 -3.64,1.6 -10.3,-7.5 4.13,-19.1 -1.74,-12 3.58,-6.8 -3.26,-9.4 -10.98,-13.1 7.78,-21.5 -3.45,-5.7 6.89,-15.9 0.12,-13.7 -14.69,-3 -15.29,-19.2 4.4,-10.2 9.25,-4.5 2.36,-17.5 7.36,1.1 4.64,-6 1.5,-10.2 5.52,-7.9 28.8,16.3 21.19,6.6 25.73,-4.3 17.68,-10.4 z"
       id="Polaciones"
       style="fill:#1a6dea;fill-opacity:1;stroke:#000000;stroke-width:2.99999998;stroke-linecap:round;stroke-miterlimit:4;stroke-opacity:1;stroke-dasharray:none">
      <title
         id="title79">Polaciones</title>
    </path>
    <path
       d="m -797482.03,4441832.5 1.31,13.3 5.71,4.2 4.31,16.3 -5.36,7.9 7.71,27.2 -1.47,27.9 16.76,23.6 0.12,18 5.74,10.3 -4.24,40 -6.27,14.5 -12.99,9.5 -6.73,12 -9.98,12 -14.19,9.4 -17.82,6 -15.32,17 -4.02,-1.2 -19.77,-8.5 -38.87,-1.2 -19.93,-10.7 -10.82,-1 -16.36,-0.5 -16.65,3.7 -10.13,12.5 -9.35,5.6 -16.09,-3.5 -4.27,-8.2 -10.58,2.9 -11.18,-16.6 7.89,-29.2 8.28,-14.8 -17.47,-21.8 -10.3,1.4 -5.66,-3.2 -23.62,3.6 -0.69,-43.9 32.07,-3.9 4.78,-5.9 16.46,-5.8 7.7,-17.1 15.29,-9.1 4.3,-12.1 18.35,-5.2 7.03,-22.3 13.62,-23.5 13.22,-4.9 7.18,-16 17.18,-10 15.35,-2.9 14.51,-14.4 30.47,-4.7 3.63,16.4 15.82,-5.4 11.05,-11.1 2.52,10.5 7.66,0.8 5.9,9.8 18.24,2.3 z"
       id="Vega de Liebana"
       style="fill:#1ac7ea;fill-opacity:1;stroke:#000000;stroke-width:2.99999998;stroke-linecap:round;stroke-miterlimit:4;stroke-opacity:1;stroke-dasharray:none">
      <title
         id="title80">Vega de Liébana</title>
    </path>
    <path
       d="m -797453.06,4441952.9 10.79,-0.6 33.66,-33.5 -10.44,-29.7 9.12,-0.8 3.61,6.8 16.65,-5.5 35.75,10.1 15.16,22.2 13.63,5.2 20.83,-0.4 9.1,-5.8 9.12,1.2 6.02,-6.1 5.65,1.4 4.83,6.2 16.94,-7.6 5.56,-7.3 11.13,-3.1 3.45,5.7 -7.78,21.5 10.98,13.1 3.26,9.4 -3.58,6.8 1.74,12 -4.13,19.1 10.3,7.5 -14.4,19.5 -9.5,24.1 1.35,6.1 -32.67,-2.2 -3.36,2.8 -44.84,-20.8 -67.11,64.8 -28.37,-17.3 -29.16,2.5 -27.68,-23 6.73,-12 12.99,-9.5 6.27,-14.5 4.24,-40 -5.75,-10.3 -0.11,-18 0,0 z"
       id="Pesaguero"
       sodipodi:nodetypes="cccccccccccccccccccccccccccccccccccccccccccc"
       style="fill:#1ac7ea;fill-opacity:1;stroke:#000000;stroke-width:2.99999998;stroke-linecap:round;stroke-miterlimit:4;stroke-opacity:1;stroke-dasharray:none">
      <title
         id="title81">Pesaguero</title>
    </path>
    <path
       d="m -796951.84,4441801.3 -34.78,15.6 -8.58,-0.9 2.99,13.9 6.61,7.8 7.74,2.5 1.31,4.9 -6.93,39.1 4.48,15.2 -22.26,13.1 -10.04,13.7 -14.53,13.2 5.19,19.8 -6.03,32.1 1.54,30.7 -17.05,9.2 -16.06,-6.5 -10.22,4.8 -4.89,-2.7 -16.68,0.7 -4.49,5.9 -14.78,5.1 -6.68,13.2 10.51,7.6 10.44,17.5 5.55,3.8 5.14,21.4 21.36,24.3 -0.92,15.1 4.75,11.4 9.38,8.2 7.3,14.5 27.81,29.7 56.98,5.7 21.03,6.4 8.39,0.8 17.19,-5.8 20.37,8.4 28.25,0.5 29.13,13.6 13.36,11.7 6.6,-11.5 7.89,-0.5 46.28,17.2 34.64,4.3 10.62,-27.1 12.38,-15.4 9.52,-22.7 4.82,-0.3 0.95,-5.3 -10.84,-17.9 17.96,-31.6 8.03,-52.4 -10.59,-12.4 14.71,-33.8 -4.01,-13.6 8.25,-26.8 26.09,-27.9 3.18,-14.1 -7.88,-5.4 11.31,-13.5 -2.77,-35.4 -0.95,-21 4.96,-8.3 -56.68,34.6 -38.29,12.3 -32.49,2.8 -17.41,-13.8 -27.74,3.2 -7.41,-9.8 -0.44,-11.3 -8.9,-6.3 -6.1,-9.9 -7.59,-2.4 -19.53,-30.9 -8.8,-7.1 -33.47,3 -29.64,19.6 -2.99,-4.9 0.95,-11.2 -7.88,-20.6 -11.98,-16.8 -6.64,-0.3 z"
       id="Campoo de Suso"
       style="fill:#2c1aea;fill-opacity:1;stroke:#000000;stroke-width:2.99999998;stroke-linecap:round;stroke-miterlimit:4;stroke-opacity:1;stroke-dasharray:none"
       inkscape:label="Hermandad de Campoo de Suso">
      <title
         id="title82">Hermandad de Campoo de Suso</title>
    </path>
    <path
       d="m -796632.84,4441900.4 77.95,13.2 1.72,26.4 14.82,18.8 12.84,10.2 16.57,4 15.18,11.2 6.02,0.7 -0.11,11.3 -4.03,7.5 20.44,34.5 -2.64,4.4 6.57,24.8 -36.6,-0.5 -17.89,-10.6 -11.17,2.6 -4.63,-0.5 -9.76,8.1 -8.61,-3.2 -22.93,-21.2 5.44,-3.6 0.14,-18.6 -10.89,-14.6 -25.22,-9.8 -2.76,-32.1 2.69,-13.9 -20.35,-13.7 -2.79,-35.4 z"
       id="Santiurde de Reinosa"
       style="fill:#2c1aea;fill-opacity:1;stroke:#000000;stroke-width:2.99999998;stroke-linecap:round;stroke-miterlimit:4;stroke-opacity:1;stroke-dasharray:none">
      <title
         id="title83">Santiurde de Reinosa</title>
    </path>
    <path
       style="display:inline;fill:#1a6dea;fill-opacity:1;stroke:#000000;stroke-width:3;stroke-dasharray:none;stroke-opacity:1"
       d="m -797027.21,4442016.8 13.75,-1.2 8.38,-2.5 4.5,-0.1 7.62,4 12.13,8.3 5.25,0.8 11.75,-3 8.37,-0.9 8.25,3 13.5,5.8 12.25,0.2 3.75,-1 0.25,-11.7 0.75,-10.8 3.63,-14.7 1.62,-16 4.25,-11.7 2.88,-1.6 5.62,-1 8.13,-0.6 7.87,-1.3 15.25,0.9 10.38,3.4 7.75,3 7.87,1.9 13.13,12.6 7.25,8.4 3.5,-0.7 0.62,-6.3 -5.62,-16 3.5,-10.7 6.12,-6.3 0.5,-2.9 -1.75,-10.3 0.25,-3.7 4.75,-5 2.63,-2.4 0.12,-17.2 0.25,-2.3 1,-2.7 -4.5,-5.7 -0.37,-12.1 -8.5,-5.7 -6.75,-10.5 -7.75,-2 -19.88,-31.7 -7.62,-6.1 -33.75,2.5 -29.63,19.8 -3.25,-5.2 1.38,-11 -8.38,-20.3 -12.12,-17.2 -6,-0.2 -34.38,15.6 -8.87,-1 2.37,13.8 6.5,8.5 8,2.3 1.5,5 -7.37,38.7 4.62,15.6 -21.75,12.9 -9.87,13.5 -15.38,13.1 5.25,19.6 -5.62,33.3 z"
       id="Mancomunidad de Campoo-Cabuerniga"
       inkscape:label="Mancomunidad Campoo-Cabuerniga">
      <title
         id="title105">Hermandad de Campoo de Suso</title>
    </path>
    <path
       d="m -796554.89,4441913.6 42.37,-10 20.76,7.8 12.22,15.2 13.4,5.5 -23.77,24.2 -3.85,27.9 -15.18,-11.2 -16.57,-4 -12.84,-10.2 -14.82,-18.8 -1.72,-26.4 z"
       id="Pesquera"
       style="fill:#2c1aea;fill-opacity:1;stroke:#000000;stroke-width:2.99999998;stroke-linecap:round;stroke-miterlimit:4;stroke-opacity:1;stroke-dasharray:none">
      <title
         id="title84">Pesquera</title>
    </path>
    <path
       d="m -796409.21,4441912.4 15.1,-9.9 25.18,4.7 12.35,3.3 10.33,12.3 23.32,8.1 4.01,5.6 -0.7,22.9 -16.25,17.2 -9.27,5 -5.93,13.1 -5.66,0.4 -11.02,7.8 -14.01,17.7 -22.77,17 -31.57,5.5 -15.65,7 -19.69,-11.9 -20.44,-34.5 4.03,-7.5 0.11,-11.3 -6.02,-0.7 3.85,-27.9 23.77,-24.2 44.41,-8.1 12.52,-11.6 z"
       id="San Miguel de Aguayo"
       style="fill:#2c1aea;fill-opacity:1;stroke:#000000;stroke-width:2.99999998;stroke-linecap:round;stroke-miterlimit:4;stroke-opacity:1;stroke-dasharray:none">
      <title
         id="title85">San Miguel de Aguayo</title>
    </path>
    <path
       d="m -796533.17,4442058.9 -10.29,23.3 5.7,17.4 -11.22,11.8 -4.18,25.1 1.47,8.1 19.8,18.2 -3.54,34 -8.68,13.9 -7.42,23 9.05,1.3 11.95,12.7 5.43,14.5 -4.93,-1.3 -6.78,27.6 -16.59,24 -8.33,6.3 -45.83,10.7 -11.49,1.8 -21.28,-10 16.44,-28.2 -0.94,-8.1 -15.4,-15.7 -10.8,-6.3 -8.22,-0.4 -17.92,8.5 -47.4,-15.1 10.63,-27.1 12.38,-15.4 9.52,-22.7 4.84,-0.3 0.93,-5.3 -10.82,-17.9 17.95,-31.6 8.01,-52.3 -10.58,-12.5 14.7,-33.8 -3.99,-13.5 8.25,-26.9 26.09,-27.9 3.19,-14 -7.89,-5.5 11.31,-13.5 20.35,13.7 -2.69,13.9 2.76,32.1 25.22,9.8 10.89,14.6 -0.14,18.6 -5.44,3.6 22.93,21.2 8.61,3.2 9.76,-8.1 4.63,0.5 z m -109.14,114.6 5.32,-0.3 19.72,-33.1 0,-19.6 9.14,-7.9 -10.4,-8.1 -1.85,4.1 -15.84,3.5 -24.3,20.9 5.83,10.2 -7.76,13 20.1,17.3 z"
       id="Campoo de Enmedio"
       style="fill:#2c1aea;fill-opacity:1;stroke:#000000;stroke-width:2.99999998;stroke-linecap:round;stroke-miterlimit:4;stroke-opacity:1;stroke-dasharray:none">
      <title
         id="title86">Campoo de Enmedio</title>
    </path>
    <path
       d="m -796319.61,4441959.4 -16.24,17.2 -9.27,5 -5.95,13.1 -5.66,0.3 -11.02,7.9 -14.02,17.7 -22.74,17 -31.57,5.4 -15.66,7 -19.71,-11.9 -2.63,4.5 6.57,24.7 -36.61,-0.4 -17.89,-10.6 -11.17,2.7 -10.29,23.2 5.69,17.4 -11.2,11.8 -4.16,25.1 1.46,8 19.78,18.3 25.55,-3.7 4.46,-7.7 0,0 11.13,7.6 17.31,-5.9 3.54,-4.6 0.1,0 0.18,0 21.25,9.3 1.02,3 14.67,3 0.8,10.3 3,2.2 0,0 9.02,-1.5 5.18,-7 0.1,0 7.05,-1.4 2.74,-5.2 0,0 11.24,4 10.04,-4.9 9.49,0.3 10.81,5.4 8.32,-5.4 8.83,4.6 12.16,-3.9 10.55,-3.3 27.44,-31.1 37.16,-10.6 27.6,-13.3 29.49,-47.1 3.61,-12.7 22.63,-1.4 0.95,-7.5 -11.75,-10.6 -45.81,-13.7 -7.48,-13 -15.08,-7.8 -5.11,-7.3 -29.2,-7.4 -4.78,2.4 -4.09,-6.1 -8.68,-1.6 -13.18,-9.8 z"
       id="Campoo de Yuso"
       style="fill:#2c1aea;fill-opacity:1;stroke:#000000;stroke-width:2.99999998;stroke-linecap:round;stroke-miterlimit:4;stroke-opacity:1;stroke-dasharray:none">
      <title
         id="title87">Campoo de Yuso</title>
    </path>
    <path
       d="m -796642.31,4442173.5 -20.1,-17.3 7.75,-13 -5.83,-10.2 24.31,-20.9 15.84,-3.5 1.84,-4.1 10.41,8.1 -9.15,7.9 0,19.6 -19.71,33.1 -5.33,0.3 z"
       id="Reinosa"
       style="fill:#2c1aea;fill-opacity:1;stroke:#000000;stroke-width:2.99999998;stroke-linecap:round;stroke-miterlimit:4;stroke-opacity:1;stroke-dasharray:none">
      <title
         id="title88">Reinosa</title>
    </path>
    <path
       d="m -796469.77,4442148.5 -3.54,4.6 0,0 -17.34,5.9 -11.13,-7.6 -4.45,7.7 0,0 -25.55,3.7 0,0 -3.54,34 -8.65,13.8 -7.44,23.1 9.05,1.3 11.97,12.7 5.4,14.5 10.15,-0.4 10.33,5.5 8.69,-1.4 5.32,19.5 9.35,-5.3 9.42,10.6 6.79,-1.2 18.57,25.1 7.85,1.9 17.08,-17.9 11.5,-7.4 6.54,7.9 28.76,-4.5 27.78,-81.1 23.65,-55.5 -10.55,3.3 -12.16,3.9 -8.83,-4.6 -8.32,5.4 -10.81,-5.4 -9.5,-0.3 -10.02,4.9 -11.25,-4 -2.73,5.2 0,0 -7.08,1.4 -5.18,7 0,0 -9.09,1.5 -3.03,-2.2 0,0 -0.84,-10.3 -14.64,-3 0,0 -1.02,-3 -21.24,-9.3 z"
       id="Rozas de Valdearroyo"
       sodipodi:nodetypes="ccccccccccccccccccccccccccccccccccccccccccccccccccc"
       style="fill:#2c1aea;fill-opacity:1;stroke:#000000;stroke-width:2.99999998;stroke-linecap:round;stroke-miterlimit:4;stroke-opacity:1;stroke-dasharray:none">
      <title
         id="title89">Rozas de Valdearroyo</title>
    </path>
    <path
       d="m -796724.57,4442256 47.4,15.1 17.92,-8.5 8.22,0.4 10.8,6.3 15.4,15.7 0.94,8.1 -16.44,28.2 21.28,10 11.49,-1.8 3.16,28.6 -57.14,82.1 -34.82,28.3 -21.16,0.7 -7.86,9.8 -17.86,12.5 -6.72,10 -17.25,0 -17.78,-13.3 -12.12,-19.5 4.99,-13.6 -1.02,-24 -12.75,-50.4 -0.37,-15.3 10.84,-7.4 3.92,-10.4 -25.28,-14.4 -4.3,-36.9 1.1,-49.8 6.62,-11.5 7.89,-0.5 46.28,17.2 34.62,4.3 z"
       id="Valdeolea"
       style="fill:#2c1aea;fill-opacity:1;stroke:#000000;stroke-width:2.99999998;stroke-linecap:round;stroke-miterlimit:4;stroke-opacity:1;stroke-dasharray:none">
      <title
         id="title90">Valdeolea</title>
    </path>
    <path
       d="m -796219.54,4442405 9.49,13.9 -14.65,23.5 -13.63,5.6 -3.94,16 4.26,4.2 24.8,-2 5,8.4 15.47,-1.1 13.59,12.6 11.57,-3.5 9.34,-8.9 -9.6,-15.1 0.53,-16.2 4.65,-9.7 -5.49,-1.7 10.72,-25.4 7.72,-8.9 21.29,14.8 26.9,10.8 20.45,23.7 -15.7,30 0.64,8.2 30.88,37.9 -0.33,13.2 -5.33,5.6 6.16,19.8 0.35,20.4 -8.12,10 -1.96,13.9 -2.87,3.3 -10.33,0.3 -45.04,25.9 -16.35,2.6 -40.55,-27.3 -15.02,-14.7 -9.21,32.1 -3.35,5 -11.33,1.5 -3.33,3.5 1.53,21.9 -3.83,20.1 -27.76,-4 -7.36,-10.2 -32.57,16.3 3.96,12.9 -17.82,-0.7 -16.35,8.4 -23.6,1.2 -4.83,-23.7 -16.24,-6.2 -6.97,5.5 -9.1,-0.8 6.63,-40.2 -2.89,-3.7 1.87,-26 -7.79,-25.1 1.49,-33.3 -6.3,-17 -13.38,2.4 -17.43,25.6 10.49,26.9 -16.21,3.4 -15.99,11.9 2.02,17.7 6.16,7.6 -2.71,4.7 -6.63,4 -7.62,-9.7 -10.6,4.6 -11.55,21 0.92,16 6.78,14.7 -15.7,8.3 -30.49,5.7 -17.18,-2.1 -7.19,-24.9 -15.58,-2.7 -2.2,-13.2 -7.9,-13.1 2.2,-15.3 -25.84,-7.8 -17.41,-0.1 -26.54,10 -12.33,-2.3 -9.86,4.7 -42.46,-44.9 -9.25,-5.4 -6.94,1.3 -4.87,-16.2 4.5,-7.6 7.78,-13.2 23.45,-4.5 4.01,-4.5 2.48,-13.9 9.31,-4 10.1,7.5 0.75,7.5 8.91,5.6 9.16,-0.1 -0.92,-3.3 6.43,-7.1 0.6,-13.8 15.3,-16 18.38,2.6 -3.61,-8.3 7.82,-10.3 -11.45,-12.8 6.26,-6.8 10.5,-3.2 19.48,7.2 8.75,14 12.29,6.7 3.62,6 28.26,-4.9 33.5,2.4 13.34,-5.8 4.03,-18.6 3.92,-2.9 6.11,4.8 6.93,-0.9 17.46,-11.1 -3.27,-3.5 1.39,-4.5 -7.78,-0.8 -2.22,-8.6 -0.11,-40.2 13.24,-6.2 11.98,2.8 -1.83,-5.6 17.7,3.7 22.15,-5.9 13.79,-5.5 8.14,-9.4 9.96,5.2 12.94,-26.3 -3.35,-5.5 33.79,0.9 14.62,4.5 11.56,-2 17.32,-10.4 -12.03,15.2 -2.23,9.7 7.27,10.3 12.88,-11.3 5.24,-26.1 9.31,-1.4 12.02,-16.6 7.13,-3 29.02,-1.8 4.39,-10.3 -1.54,-12.2 3.55,-6.1 0.57,-25.6 17.28,2.2 13.57,-4.4 5.43,-11.9 49.29,35 3.92,12.9 13.27,15.2 -6.47,22.6 -8.52,4.1 -10.15,-1.8 -4.8,-5.1 -12.11,2.3 -7.12,24.8 -2.79,9 -17.22,10.7 -18.63,-5.2 -7.59,-6.9 -13.51,3.9 -21.33,-16 -9.07,-11.7 -0.34,5.2 -4.61,3.2 6.33,7.8 14.13,7.9 11.11,39.1 -17.6,2.5 z m -501.04,152.8 14.95,20.8 24.07,-3.5 0,-12.3 -3.56,-5.9 -23.88,-5.6 -11.61,6.5 z m 501.04,-152.8 -10.88,-7.4 -2.63,-5.9 -11.54,8.8 25.05,4.5 z m -25.05,-4.5 -6.26,-5.7 -7.28,3.3 13.54,2.4 z m -329.56,219.2 21.42,-13.8 0.97,-43.3 -11.35,-12.9 -12.77,-2.5 -8.99,-6.1 -9.67,12.6 -1.13,13.1 13.88,18.5 -6.44,13.3 14.08,21.1 z"
       id="Valderredible"
       style="fill:#2c1aea;fill-opacity:1;stroke:#000000;stroke-width:2.99999998;stroke-linecap:round;stroke-miterlimit:4;stroke-opacity:1;stroke-dasharray:none">
      <title
         id="title91">Valderredible</title>
    </path>
    <path
       d="m -796525.1,4442262.2 10.12,-0.4 10.34,5.5 8.7,-1.4 5.31,19.5 9.35,-5.2 9.43,10.5 6.78,-1.2 18.56,25.1 7.86,1.9 17.08,-17.9 11.52,-7.3 6.53,7.8 28.74,-4.4 -2.36,6.6 5.54,11.7 18.28,17.4 8.44,15.4 3.36,5.5 -12.95,26.3 -9.96,-5.2 -8.14,9.4 -13.78,5.5 -22.16,5.9 -17.7,-3.7 1.84,5.6 -11.99,-2.8 -13.24,6.2 0.12,40.2 2.21,8.6 7.78,0.8 -1.39,4.5 3.27,3.5 -17.46,11.1 -6.92,0.9 -6.11,-4.8 -3.93,2.9 -4.03,18.6 -13.34,5.8 -33.49,-2.4 -28.27,4.9 -3.62,-6 -12.29,-6.7 -8.75,-14 -19.48,-7.2 -10.5,3.2 -6.26,6.8 11.46,12.8 -7.83,10.3 3.61,8.3 -18.37,-2.6 4.21,-24.1 -23.2,-6.3 -3.67,-5.5 -7.35,-1.1 -6.69,-8.3 8.47,-6.7 -10.1,-5.8 57.14,-82.1 -3.16,-28.6 45.83,-10.7 8.33,-6.3 16.6,-24 6.77,-27.6 4.93,1.3 z"
       id="Valdeprado del Rio"
       style="fill:#2c1aea;fill-opacity:1;stroke:#000000;stroke-width:2.99999998;stroke-linecap:round;stroke-miterlimit:4;stroke-opacity:1;stroke-dasharray:none">
      <title
         id="title92">Valdeprado del Río</title>
    </path>
    <path
       d="m -795432.06,4441134.2 -12.77,3.9 -5.48,-0.6 -0.37,0.5 -13.06,19.8 0,0 -20.29,-2 -54.97,-6.3 -25.48,9.7 0,0 -11.97,-12 -7.66,0.9 -9.79,8 -3.24,42.6 -18.69,29.3 35.95,14 9.27,7.7 0,0 16.86,12.7 0,0 13.06,-7.2 0.1,0 9.16,-2.2 0.73,-5.6 0.11,0 0.36,-0.2 4.35,-2.6 0.1,-0.1 10.29,-6.3 0.1,0 0,0 0.1,0 9.02,1.6 0,0 6.68,-4.6 0.1,0 0.1,0 0,0 12.08,11.1 0,0 12.37,0.6 0,0 2.19,7.7 0.14,0 6.13,0.6 0,0 7.04,9.4 0,0 9.05,8.5 10,-8.5 0,-0.1 2.08,-12.9 0,0 0,-0.1 8.84,-1.7 7.04,-7.7 -1.57,-1.1 -14.67,-7.8 -3.32,-15.3 2.48,-13.6 3.18,-5.8 -0.1,-0.1 9.71,-59.7 -5.47,-4.5 z m 24.02,0 -8.29,2.1 -2.41,5.6 -0.91,15.7 -3.07,12.9 -2.15,12.8 -3.17,18.7 13.03,3 6.97,-70.8 z m -2.85,110.8 -0.22,0.2 0.51,0.1 -0.29,-0.3 z m -2.01,2.5 -0.18,0.2 0.11,0.1 0,0 0.11,0 0,-0.3 z"
       id="Barcena de Cicero"
       style="fill:#eeebd3;fill-opacity:1;stroke:#000000;stroke-width:2.99999998;stroke-linecap:round;stroke-miterlimit:4;stroke-opacity:1;stroke-dasharray:none">
      <title
         id="title93">Bárcena de Cicero</title>
    </path>
    <path
       d="m -795455.42,4441049.5 -6.9,6.7 3.14,19.6 7.23,0.7 -1.17,-5.5 2.3,-0.9 4.16,7.5 11.17,17.6 -1.5,10.4 2.89,13.7 17.59,-0.8 3.83,1.1 3.51,0.1 5.43,2.2 5.48,1.5 4.56,-3 14.64,-12.1 -1.53,-27.7 0.54,-0.2 -0.36,-5.4 -13.36,-15.9 -6.57,0.4 -11.53,-6.1 -16.58,4.6 -23.61,-4.3 -3.36,-4.2 z"
       id="Santoña"
       style="fill:#d7f4d7;fill-opacity:1;stroke:#000000;stroke-width:2.99999998;stroke-linecap:round;stroke-miterlimit:4;stroke-opacity:1;stroke-dasharray:none">
      <title
         id="title94">Santoña</title>
    </path>
    <path
       d="m -795776.62,4440994.6 2.39,-4.7 3.39,2.3 4.99,-6.2 3.88,0.9 3.31,-5.6 31.07,2.7 6.71,-1.5 3.11,-5.8 2.61,7.8 8.05,-10.1 2.53,7.4 5.65,-1.1 14.91,-24 12.53,-9.5 18.81,1.2 6.47,-3.2 1.14,1.9 -5.57,3.2 4.28,2.6 -6.91,22.4 0,14.4 -15.11,26.1 9.95,2.4 -0.12,6.2 9.39,4.7 -6.78,5.3 2.49,23.2 -3.4,0.2 -5.63,1.2 -28.39,13.2 4.99,13.3 -10.09,18.6 1.48,27.9 -5.29,2 -29.81,-4.9 -31.82,-12.2 -4.98,-9.8 -10.17,-9.1 -0.91,-20 28.74,-21 4.3,-6.6 -9.91,-8.5 -8.1,-14.3 0.93,-13 -4.4,-1 -6.46,-16.2 -4.32,-2.8 0.11,0 z"
       id="Bareyo"
       sodipodi:nodetypes="ccccccccccccccccccccccccccccccccccccccccccccccccc"
       style="fill:#d7f4d7;fill-opacity:1;stroke:#000000;stroke-width:2.99999998;stroke-linecap:round;stroke-miterlimit:4;stroke-opacity:1;stroke-dasharray:none">
      <title
         id="title95">Bareyo</title>
    </path>
    <path
       d="m -795589.17,4441003.3 4.12,6.4 4.49,-3.1 14.33,20.6 -9.67,11.9 5.64,10.3 11.86,-5.9 33.98,25.9 -1.93,12.7 -40.58,11 -32.02,26.6 1.91,-21.3 -18.51,-35.2 -37.83,-5.6 -2.49,-23.2 6.78,-5.3 -9.39,-4.7 0.12,-6.2 -9.95,-2.4 15.11,-26.1 0,-14.4 13.76,-13.1 14.81,-4.7 5.07,3.3 6.78,-6.1 7.71,4.6 17.61,-2.7 5.37,2.2 1.21,8.2 8.91,1.6 -1,7.4 -0.45,7.2 3.05,3.7 -8.03,1.3 -9.25,8.4 -2.08,3.5 0.56,3.2 z"
       id="Arnuero"
       sodipodi:nodetypes="ccccccccccccccccccccccccccccccccccccc"
       style="fill:#d7f4d7;fill-opacity:1;stroke:#000000;stroke-width:2.99999998;stroke-linecap:round;stroke-miterlimit:4;stroke-opacity:1;stroke-dasharray:none">
      <title
         id="title96">Arnuero</title>
    </path>
    <path
       d="m -795455.36,4441049.5 -6.97,6.7 -7.99,3 -3.8,-0.1 -46.13,-2 -4.17,12.3 -33.98,-25.9 -11.86,5.9 -5.64,-10.3 9.67,-11.9 -17.38,-25.1 8.48,-9.2 8.38,3.6 6.29,-5.1 0.94,4.1 1.75,3.1 5.49,0.2 12.79,-9.3 6.89,-0.2 9.51,5.2 -2.36,26.3 5.41,1.1 -0.86,4.2 5.69,5.3 8.4,1.4 14.95,10.7 36.5,6 z"
       id="Noja"
       style="fill:#d7f4d7;fill-opacity:1;stroke:#000000;stroke-width:2.99999998;stroke-linecap:round;stroke-miterlimit:4;stroke-opacity:1;stroke-dasharray:none">
      <title
         id="title97">Noja</title>
    </path>
    <path
       d="m -795776.63,4440994.6 -2.55,5.2 -7.56,-0.2 -16.53,11.2 -5.99,0.5 -5.76,7.4 2.11,6 -6.75,-3.5 -3.91,7.1 -5.43,-0.6 -5.59,6.9 -8.65,-0.7 -5.47,-5 1.71,-4.7 -20.44,1.3 -31.32,13.2 -5.76,9.2 1.16,18.8 -10.55,4.7 -34.6,6.4 -36.13,-3.3 15.4,7 23.58,1.8 5.18,4.7 2.92,9.4 -5.33,17.6 -8.14,11.7 14.97,0.8 3.14,7.3 8.39,0.2 2.81,-9 16.9,-16.4 8.51,9.5 3.43,18.9 3.76,3.6 38.25,-4.7 38.33,-23.4 9.41,10.2 19.24,-5.3 22.56,-1.5 -5,-9.8 -10.15,-9.1 -0.91,-20 28.72,-21 4.31,-6.6 -9.89,-8.5 -8.1,-14.3 0.91,-13 -4.38,-1 -6.46,-16.2 -4.35,-2.8 z m -132.17,36.5 -4.63,6.5 1.75,11.7 4.09,-2.8 2.41,-9.9 -3.62,-5.5 z"
       id="Ribamontán al Mar"
       style="fill:#d7f4d7;fill-opacity:1;stroke:#000000;stroke-width:2.99999998;stroke-linecap:round;stroke-miterlimit:4;stroke-opacity:1;stroke-dasharray:none">
      <title
         id="title98">Ribamontán al Mar</title>
    </path>
    <path
       d="m -795598.95,4441119.7 -0.45,5.5 -19.35,4 -17.44,12.1 -32.12,18.3 -26.95,-4.1 -3.35,-4.6 -5.63,-5.7 -0.16,-6.8 4.69,-4.4 5.29,-2 -1.48,-27.9 10.09,-18.6 -4.99,-13.3 28.39,-13.2 5.63,-1.2 3.4,-0.2 37.83,5.6 18.51,35.2 -1.91,21.3 z"
       id="Meruelo"
       style="fill:#d7f4d7;fill-opacity:1;stroke:#000000;stroke-width:2.99999998;stroke-linecap:round;stroke-miterlimit:4;stroke-opacity:1;stroke-dasharray:none">
      <title
         id="title99">Meruelo</title>
    </path>
    <path
       d="m -795462.36,4441056.2 -7.95,3 -3.8,-0.1 -46.14,-2 -4.16,12.3 -1.93,12.7 42.12,22.3 6.46,1 4.89,0.8 -4.49,-5.8 0.99,-1.5 3.58,-0.1 -0.59,-3.4 8.36,2.3 4.93,3.9 4.52,8.6 0.77,-1.9 -2.85,-6.4 -0.18,-7.1 5.48,-3.8 0.62,-4.6 0,0 0.73,-5.3 -0.95,-4.6 -7.23,-0.7 -3.13,-19.6 z"
       id="Argoños"
       style="fill:#d7f4d7;fill-opacity:1;stroke:#000000;stroke-width:2.99999998;stroke-linecap:round;stroke-miterlimit:4;stroke-opacity:1;stroke-dasharray:none">
      <title
         id="title100">Argoños</title>
    </path>
    <path
       d="m -795699.71,4441134 -4.69,4.4 0.16,6.8 5.63,5.7 -10.44,8.8 -5.82,14.5 8.94,17.6 -0.83,15.5 -3.82,3.5 -3.28,14.2 5.54,21.1 -11.73,18.1 -13.71,4.6 -42.49,-7.6 -12.81,-6.2 -20.04,-14.5 -25.5,-25.9 -17.27,-8.4 -12.63,2 0.53,-7.2 -4.49,-2.7 -5.36,-15 -7.43,-20.5 3.22,-4.8 -8.74,-1.1 -2.37,-15.3 38.28,-4.7 38.3,-23.4 9.41,10.2 19.25,-5.2 22.56,-1.6 31.82,12.2 29.81,4.9 z"
       id="Ribamontan al Monte"
       style="fill:#eeebd3;fill-opacity:1;stroke:#000000;stroke-width:2.99999998;stroke-linecap:round;stroke-miterlimit:4;stroke-opacity:1;stroke-dasharray:none">
      <title
         id="title101">Ribamontán al Monte</title>
    </path>
    <path
       d="m -795593.97,4441156.1 -3.26,42.6 -18.7,29.3 35.97,14 9.32,7.7 -12.51,3.8 -44.83,-10.4 -30.02,-11.9 -11.09,3.5 -4.85,8.3 -16.35,9.1 -18.03,-6 -5.54,-21.1 3.28,-14.2 3.82,-3.5 0.83,-15.5 -8.94,-17.6 5.82,-14.5 10.44,-8.8 3.35,4.6 26.95,4.1 32.12,-18.3 5.47,10.2 36.75,4.6 z"
       id="Hazas de Cesto"
       style="fill:#eeebd3;fill-opacity:1;stroke:#000000;stroke-width:2.99999998;stroke-linecap:round;stroke-miterlimit:4;stroke-opacity:1;stroke-dasharray:none">
      <title
         id="title102">Hazas de Cesto</title>
    </path>
    <path
       d="m -795583.15,4441253.5 -17.18,31.9 -5.42,17.3 -19.73,12 -7,11.7 0.19,14.3 -24.9,11 -35.65,9.1 -13.74,10.2 -18.57,-19.4 21.44,-70.7 -16.34,-16.7 11.73,-18.1 18.03,6 16.35,-9.1 4.85,-8.3 11.09,-3.5 30.02,11.9 44.83,10.4 z"
       id="Solorzano"
       style="fill:#eeebd3;fill-opacity:1;stroke:#000000;stroke-width:2.99999998;stroke-linecap:round;stroke-miterlimit:4;stroke-opacity:1;stroke-dasharray:none">
      <title
         id="title103">Solórzano</title>
    </path>
    <path
       d="m -795526.34,4441082.1 -40.59,11 -32.01,26.6 -0.44,5.5 -19.38,4 -17.41,12.1 5.44,10.2 36.75,4.6 9.79,-8 7.7,-0.9 11.97,12 25.48,-9.7 54.97,6.3 -0.66,-1.5 -12.48,-9.9 -2.49,-5.4 -0.91,1.4 -1.9,10.5 -3.79,-0.4 -3.21,-3.8 -6.83,1 -0.58,-1.6 5.69,-1.4 4.38,0.9 2.26,2.9 1.13,-0.8 0.37,-5.8 0.58,-4.5 4.17,-1.9 1.53,1.4 1.68,4.2 4.74,0.5 5.84,-1.2 0.77,2.7 4.2,2.5 2.44,-3.1 0,-2.5 5.29,-6.4 4.17,-3.7 4.16,1.1 11.75,1.9 4.53,-0.7 2.3,-2.4 4.34,-3.3 2.08,-4.8 -4.56,-7 -6.97,-0.3 -4.75,1.8 -5.11,-3.2 -2.45,-4.4 -5.25,-1.5 -16.61,-2.7 -42.12,-22.3 z m 112.46,48.6 -2.45,5.6 8.31,-2.1 0.4,-4.8 -6.26,1.3 z m -50.56,4.8 -4.56,1.7 -5.33,15.5 -2.66,3.8 13.25,1.4 13.54,-20.6 -3.65,-0.1 -10.59,-1.7 z"
       id="Escalante"
       sodipodi:nodetypes="cccccccccccccccccccccccccccccccccccccccccccccccccccccccccccccccccc"
       style="fill:#d7f4d7;fill-opacity:1;stroke:#000000;stroke-width:2.99999998;stroke-linecap:round;stroke-miterlimit:4;stroke-opacity:1;stroke-dasharray:none">
      <title
         id="title104">Escalante</title>
    </path>
    <path
       style="fill:#938484;fill-opacity:1"
       d="m -795286.94,4441818.6 c 3.77,7.5 7.54,15.1 11.31,22.6"
       id="path1" />
  </g>
</svg>
